<svg xmlns="http://www.w3.org/2000/svg" fill="none" viewBox="0 0 470 512">
  <g clip-path="url(#a)">
    <path fill="#000" fill-rule="evenodd" d="M216.373 1.979c-10.897 2.856-18.146 7.054-31.461 18.217-13.672 11.462-15.638 14.396-13.921 20.771.77 2.859 2.44 5.008 6.279 8.082 2.876 2.303 6.242 4.656 7.48 5.23 2.194 1.016 2.25 1.436 2.25 16.745 0 8.637.452 18.127 1.005 21.09 1.612 8.634 6.557 17.513 13.645 24.497l6.35 6.257V142h-7.895c-10.093 0-19.066 2.749-25.276 7.743-2.57 2.066-10.606 10.394-17.859 18.507L143.784 183H52.235l-2.745-5.611c-4.346-8.883-13.041-14.177-23.49-14.303-9.8-.118-20.055 6.423-24.129 15.392-2.232 4.914-2.483 16.122-.468 20.944 1.953 4.674 8.185 11.312 13.029 13.877 5.769 3.056 17.398 3.039 23.202-.034 5.555-2.94 10.288-7.834 12.575-13.004L52.094 196h80.033l-15.934 17.75A71707.375 71707.375 0 0 1 91.27 241.5c-4.945 5.5-9.3 10.987-9.679 12.193-1.019 3.24 4.995 9.381 12.647 12.915 5.592 2.582 7.332 2.891 16.262 2.882 15.233-.015 17.493-1.387 41.75-25.34L172 224.648v7.676c0 8.469 1.743 11.676 6.345 11.676 5.055 0 5.655-2.195 5.655-20.674 0-15.215-.194-17.191-1.829-18.671-4.13-3.737-5.525-2.706-32.127 23.741-14.049 13.967-27.119 26.214-29.044 27.214-4.292 2.23-16.001 2.523-20.75.519-1.787-.755-3.25-1.663-3.25-2.018 0-.356 19.013-21.784 42.25-47.618 30.712-34.145 43.479-47.654 46.75-49.471 3.98-2.21 5.888-2.534 16.5-2.797 6.6-.163 12.935-.495 14.079-.737 3.241-.686 4.421-4.766 4.421-15.285V128.5h25v11.095c0 14.551-.514 14.11 17 14.592 17.693.487 18.316.828 34.839 19.066 33.502 36.978 72.144 80.314 72.152 80.917.005.368-2.303 1.437-5.128 2.375-6.23 2.07-13.882 1.523-19.485-1.391-2.133-1.109-14.903-13.108-28.378-26.664-13.475-13.557-25.542-25.063-26.815-25.569-2.37-.943-5.929.246-7.42 2.479-.404.605-.725 24.5-.714 53.1.017 40.969.733 70.243 3.379 138 1.846 47.3 3.678 86.788 4.071 87.751.392.962 2.578 2.575 4.856 3.583 4.381 1.937 10.643 8.234 10.643 10.701 0 1.232-2.857 1.465-18 1.465h-18v-10.097c0-11.521-21.199-168.048-23.508-173.575-4.055-9.708-20.314-9.641-24.521.1C218.488 322.178 197 478.566 197 490.889V500h-18c-9.9 0-17.998-.337-17.996-.75.002-.413.88-2.188 1.952-3.946 1.979-3.245 4.64-5.355 10.364-8.215 2.325-1.162 3.377-2.53 3.913-5.089.891-4.261 6.815-165.007 6.787-184.179-.022-15.049-.648-16.821-5.936-16.821-5.31 0-6.077 2.191-6.152 17.579-.037 7.656-1.503 51.01-3.259 96.341-2.721 70.278-3.41 82.486-4.682 82.876-.82.25-4.015 3.018-7.1 6.149-3.906 3.963-6.123 7.238-7.3 10.78-2.382 7.172-2.435 12.685-.146 15.214 1.796 1.985 2.866 2.061 29.137 2.061h27.273l2.072-2.635c1.879-2.388 2.07-3.959 2.044-16.75-.027-12.503 1.19-23.025 10.652-92.115 5.876-42.9 11.064-78.427 11.53-78.95.535-.6 1.189-.6 1.775 0 .51.523 5.91 37.024 12 81.114C255.32 470.668 257 484.789 257 495.759c0 11.257.237 13.145 1.829 14.586 1.607 1.455 5.12 1.655 29 1.655 25.838 0 27.269-.098 29.171-2 5.329-5.329-1.658-23.417-11.48-29.72l-4.332-2.78-.567-9c-.312-4.95-.836-15.412-1.165-23.25l-.597-14.25h54.739l1.321 3.652c1.838 5.082 8.729 12.279 14.008 14.628 9.341 4.157 21.776 1.863 28.986-5.347 15.084-15.084 7.571-40.577-13.23-44.895-6.74-1.399-14.005.037-19.77 3.909-4.305 2.891-9.538 9.709-10.551 13.748l-.579 2.305h-54.745l-.44-2.25c-1.133-5.795-4.647-125.255-4.624-157.177l.026-35.928 20.25 20.002c24.834 24.53 26.996 25.853 42.25 25.853 8.682 0 10.731-.343 15.546-2.601 3.05-1.431 7.235-4.085 9.301-5.899 6.871-6.033 8.311-3.963-41.128-59.108-26.99-30.106-46.318-50.832-49.5-53.08-6.669-4.713-14.231-6.812-24.535-6.812H258v-18.987l7.133-7.007 7.132-7.006h61.576l.644 2.933c.864 3.934 7.789 11.637 12.887 14.336 5.831 3.086 17.428 3.085 23.262-.004 25.757-13.632 15.387-52.242-13.447-50.067-9.851.742-18.497 6.726-22.37 15.482L332.906 96l-27.203.001-27.203.001.319-29.009c.347-31.642-.14-35.565-5.564-44.821-10.334-17.633-34.256-26.125-56.882-20.193Zm28.233 12.497C257.225 18.223 267 31.018 267 43.788c0 2.883-.277 3.307-1.75 2.672-4.839-2.084-13.894-1.659-22.308 1.045-19.486 6.264-44.152 3.365-56.256-6.613l-3.699-3.048 10.756-8.976c11.316-9.442 19.478-14.072 27.767-15.753 6.142-1.245 16.345-.644 23.096 1.361ZM70.5 47.917c-8.914 2.466-16.435 8.658-20.142 16.583-2.865 6.125-3.151 15.815-.682 23.063 2.318 6.803 10.196 14.569 17.107 16.865 7.184 2.386 15.896 2.196 22.123-.483 6.118-2.632 13.003-9.757 15.645-16.191l1.949-4.747 16.095-.003c14.32-.004 16.278-.206 17.75-1.833 2.09-2.31 2.132-6.551.084-8.6-1.3-1.299-4.377-1.571-17.766-1.571h-16.194l-1.748-4.922c-2.167-6.102-9.178-13.508-15.388-16.255-5.11-2.26-14.219-3.182-18.833-1.906Zm192.589 12.782 4.094 3.699-.342 13.576c-.327 13.003-.48 13.858-3.633 20.259-5.66 11.49-15.194 17.749-28.208 18.519-6.092.36-8.622.021-13.475-1.81-8.02-3.026-15.409-10.078-19.089-18.22-2.582-5.713-2.848-7.438-3.252-21.105l-.439-14.882 4.877.882c2.683.486 11.403.845 19.378.799 13.015-.076 15.217-.35 21.5-2.676 10.132-3.751 13.572-3.573 18.589.959Zm-181.87-.655c4.5 1.25 9.298 5.122 11.412 9.209 1.982 3.833 1.946 11.731-.072 15.633-4.251 8.221-15.964 11.576-24.039 6.885-12.669-7.36-10.768-26.355 3.135-31.312 4.722-1.684 4.958-1.694 9.564-.415ZM157 72c-4.129 4.129-1.025 12 4.734 12 3.116 0 7.266-4.258 7.266-7.455 0-3.435-3.326-6.545-7-6.545-1.667 0-3.889.889-5 2Zm54.597 4.166C210.718 77.419 210 79.145 210 80s.718 2.581 1.597 3.834c2.039 2.912 5.368 2.503 7.267-.891 3.103-5.549-3.69-11.885-7.267-6.777Zm36.76.411c-1.93 2.946-1.069 6.955 1.893 8.814 2.265 1.422 4.913-.153 6.166-3.667C257.547 78.551 254.945 74 252 74c-1.075 0-2.714 1.16-3.643 2.577Zm115.925 12.794c5.389 2.296 7.999 5.953 8.474 11.871.346 4.31-.003 5.889-1.937 8.758-6.075 9.013-18.277 8.858-23.863-.304-4.167-6.835-1.307-16.241 6.064-19.944 4.194-2.108 6.988-2.202 11.262-.381ZM33.586 177.464c6.357 4.166 8.307 13.406 4.144 19.638-7.909 11.839-25.713 6.507-25.726-7.704-.01-10.87 12.58-17.832 21.582-11.934Zm173.637 23.093c-2.491 1.744-2.975 6.071-.973 8.707 1.706 2.246 9.356 5.361 16.728 6.811 11.954 2.352 31.224-.888 36.937-6.211 3.069-2.859 2.518-7.781-1.098-9.8-2.429-1.357-3.042-1.324-6.5.35-12.116 5.869-24.263 5.931-37.535.193-4.573-1.977-4.807-1.978-7.559-.05Zm0 36c-2.239 1.567-2.966 5.725-1.426 8.148 1.199 1.887 11.299 6.175 17.163 7.287 11.146 2.114 25.421.291 33.444-4.272 4.856-2.761 6.079-4.66 5.216-8.099-1.181-4.704-4.438-5.242-12.263-2.025-5.778 2.375-8.274 2.819-15.857 2.819-7.497 0-10.098-.452-15.578-2.708-7.699-3.168-7.803-3.179-10.699-1.15Zm-33.279 20.287C169.111 260.758 172.2 269 178.5 269c4.001 0 6.833-2.971 6.833-7.169 0-3.599-3.232-6.831-6.833-6.831-1.253 0-3.303.83-4.556 1.844Zm257.388 1.946c-2.842 1.016-6.827 3.113-8.855 4.66-4.17 3.18-9.051 10.335-10.001 14.658l-.635 2.892h-34.765c-32.411 0-34.878.124-36.421 1.829-2.362 2.61-2.089 6.753.568 8.614 1.906 1.335 7.081 1.557 36.364 1.557h34.141l1.778 4.654c2.182 5.713 7.371 11.603 13.266 15.058 3.322 1.947 6.269 2.719 11.705 3.068 10.197.655 16.434-1.56 23.065-8.191 6.1-6.1 8.462-12.117 8.448-21.517-.029-19.89-19.969-33.962-38.658-27.282Zm13.887 11.254c11.131 3.092 16.15 15.532 10.295 25.522-8.618 14.705-31.514 8.64-31.514-8.348 0-8.251 4.752-15.002 12-17.049 4.66-1.316 4.917-1.32 9.219-.125Zm-131.146 12.591c-2.722 3.46-2.617 5.912.382 8.91 4.724 4.725 11.545 1.835 11.545-4.89 0-6.577-7.838-9.219-11.927-4.02ZM56.324 325.638c-6.002 2.126-12.763 8.517-15.99 15.112-2.26 4.618-2.77 6.993-2.734 12.714.157 24.613 28.024 38.057 47.716 23.021 3.457-2.639 5.504-5.354 7.923-10.502l3.261-6.943 13.095-.02c11.401-.017 13.309-.257 14.75-1.849 2.225-2.459 2.087-5.739-.345-8.171-1.793-1.793-3.333-2-14.864-2H96.272l-1.81-4.739c-2.474-6.478-10.577-14.431-16.899-16.585-5.961-2.031-15.566-2.048-21.239-.038Zm19.156 12.649c10.085 5.712 11.468 20.53 2.611 27.983-4.404 3.705-10.029 5.093-15.104 3.726C58.18 368.702 52.718 364.147 51 360c-1.81-4.369-.835-13.018 1.9-16.859 4.937-6.934 15.063-9.111 22.58-4.854Zm66.464 9.557c-2.811 2.276-3.036 7.292-.456 10.143 2.727 3.013 7.847 2.674 10.496-.694 5.185-6.592-3.488-14.754-10.04-9.449Zm245.158 65.426c8.98 5.999 8.772 18.178-.406 23.774-6.063 3.697-15.227 1.658-19.091-4.246-6.024-9.205.848-21.798 11.895-21.798 2.706 0 5.415.809 7.602 2.27Z" clip-rule="evenodd"/>
    <path fill="#F4ADA4" d="M81.219 60.044c4.5 1.25 9.298 5.122 11.412 9.209 1.982 3.833 1.946 11.73-.072 15.633-4.251 8.22-15.964 11.576-24.039 6.885-12.669-7.36-10.768-26.355 3.135-31.312 4.722-1.684 4.958-1.694 9.564-.415Zm-47.633 117.42c6.357 4.166 8.307 13.406 4.144 19.638-7.909 11.839-25.713 6.507-25.726-7.704-.01-10.87 12.58-17.832 21.582-11.934ZM75.48 338.287c10.085 5.712 11.468 20.53 2.611 27.983-4.404 3.705-10.029 5.093-15.104 3.726C58.18 368.702 52.718 364.147 51 360c-1.81-4.369-.835-13.018 1.9-16.859 4.937-6.934 15.063-9.111 22.58-4.854Zm311.622 74.983c8.98 5.999 8.772 18.178-.406 23.774-6.063 3.697-15.227 1.658-19.091-4.246-6.024-9.205.848-21.798 11.895-21.798 2.706 0 5.415.809 7.602 2.27Zm58.117-143.226c11.131 3.092 16.15 15.532 10.295 25.522-8.618 14.705-31.514 8.64-31.514-8.348 0-8.251 4.752-15.002 12-17.049 4.66-1.316 4.917-1.32 9.219-.125ZM364.282 89.371c5.389 2.296 7.999 5.953 8.474 11.871.346 4.31-.003 5.889-1.937 8.758-6.075 9.013-18.277 8.858-23.863-.304-4.167-6.835-1.307-16.241 6.064-19.944 4.194-2.108 6.988-2.202 11.262-.381Z"/>
  </g>
  <defs>
    <clipPath id="a">
      <path fill="#fff" d="M0 0h470v512H0z"/>
    </clipPath>
  </defs>
</svg>
