<svg xmlns="http://www.w3.org/2000/svg" fill="none" viewBox="0 0 622 563">
  <path fill="#CCC" d="M475.313 63.832H227.616a18.983 18.983 0 0 0-13.402 5.565 19 19 0 0 0-5.561 13.409v124.177h38.12a16.381 16.381 0 0 1 13.943 7.714l13.212 21.043 12.634 20.106 2.371 3.78 14.454 23.003.166.263h190.723V82.806a19 19 0 0 0-5.561-13.41 18.984 18.984 0 0 0-13.402-5.564Z"/>
  <path fill="#fff" d="M377.131 101.793H254.399a12.267 12.267 0 0 0-12.267 12.275c0 3.255 1.292 6.377 3.593 8.679a12.262 12.262 0 0 0 8.674 3.595h122.732c3.253 0 6.374-1.293 8.674-3.595a12.276 12.276 0 0 0-8.674-20.954Zm68.061 60.274H255.517a13.39 13.39 0 0 0-9.47 3.925 13.404 13.404 0 0 0 0 18.949 13.393 13.393 0 0 0 9.47 3.924h189.675a13.39 13.39 0 0 0 13.391-13.399 13.4 13.4 0 0 0-3.922-9.474 13.387 13.387 0 0 0-9.469-3.925Zm12.109 54.603a13.38 13.38 0 0 0-12.109-7.713H255.517c-.29 0-.566.013-.856.027a16.434 16.434 0 0 1 6.055 5.713l13.212 21.043h171.264a13.361 13.361 0 0 0 11.292-6.205 13.388 13.388 0 0 0 .817-12.865Zm1.145 50.767a13.395 13.395 0 0 0-13.254-11.592h-158.63l2.371 3.781 14.454 23.003h141.805a13.236 13.236 0 0 0 7.765-2.497 13.375 13.375 0 0 0 5.613-10.902c.001-.6-.041-1.199-.124-1.793Z"/>
  <path fill="#E4E4E4" d="m609.85 170.775-19.309-7.549-96.265-37.588-115.173-44.971a18.99 18.99 0 0 0-24.563 10.79l-4.027 10.336-9.585 24.549-13.93 35.725-10.454 26.798-7.834 20.091-10.454 26.784-7.847 20.105-.22.58-1.256 3.201 14.454 23.003.166.263h267.708a16.436 16.436 0 0 1 12.812 6.126l1.131-2.87 13.819-35.408 21.598-55.376a19.021 19.021 0 0 0-.306-14.522 19.003 19.003 0 0 0-10.465-10.067Z"/>
  <path fill="#fff" d="m504.593 170.416-10.317-4.029-104.016-40.611a12.309 12.309 0 0 0-9.386.205 12.323 12.323 0 0 0-6.516 6.764 12.32 12.32 0 0 0 6.979 15.91l34.355 13.413 42.492 16.586 36.092 14.103 1.393.538a12.269 12.269 0 0 0 15.875-6.983 12.281 12.281 0 0 0-6.951-15.896Zm41.485 80.917-51.802-20.229-36.975-14.434-19.75-7.714-51.442-20.091-16.716-6.527a13.386 13.386 0 0 0-16.867 6.527c-.165.345-.33.704-.468 1.076a13.387 13.387 0 0 0 .208 10.248 13.384 13.384 0 0 0 7.391 7.098l4.275 1.669 68.572 26.784 61.772 24.121 42.065 16.435a13.28 13.28 0 0 0 4.854.91 13.394 13.394 0 0 0 11.73-19.889 13.387 13.387 0 0 0-6.847-5.984Zm-51.802 30.096-3.324-1.297-32.506-12.695-29.694-11.591-51.497-20.105-24.908-9.729a13.4 13.4 0 0 0-5.147-.918 13.394 13.394 0 0 0-8.986 23.072 13.385 13.385 0 0 0 4.41 2.809l12.468 4.871 62.199 24.286 6.4 2.498.662.262h73.661l-3.738-1.463Zm-125.82 1.201-6.4-2.498-26.742-10.446a13.371 13.371 0 0 0-11.558.869 13.368 13.368 0 0 0-6.536 9.577 12.656 12.656 0 0 0-.152 2.498c-.003.087.002.175.014.262h52.049l-.675-.262Z"/>
  <path fill="#3F3D56" d="m423.691 282.629-6.4-2.497H317.22a12.65 12.65 0 0 0-.152 2.497h-13.681l.166.263h120.8l-.662-.263Zm0 0H303.387l.166.263h120.8l-.662-.263Zm0 0H303.387l.166.263h120.8l-.662-.263Zm.662.263-.662-.263H303.387l.166.263h120.8ZM182.987 559.217a16.493 16.493 0 0 1-16.467-16.476V223.473a16.508 16.508 0 0 1 4.826-11.651 16.494 16.494 0 0 1 11.641-4.839h25.666v-2.76h-25.666a19.262 19.262 0 0 0-13.589 5.65 19.276 19.276 0 0 0-5.637 13.6v319.268a19.265 19.265 0 0 0 3.067 10.404 19.242 19.242 0 0 0 8.201 7.093h242.98c-.221-.331-.441-.676-.662-1.021h-234.36Zm402.217-273.069a19.14 19.14 0 0 0-13.943-6.016H305.083l-14.894-23.707-.359-.58-12.633-20.105-14.15-22.52a19.27 19.27 0 0 0-16.274-8.997h-63.786a19.262 19.262 0 0 0-13.589 5.65 19.276 19.276 0 0 0-5.637 13.6v319.268a19.265 19.265 0 0 0 3.067 10.404 19.242 19.242 0 0 0 8.201 7.093 18.947 18.947 0 0 0 7.958 1.739h388.274a19.016 19.016 0 0 0 7.972-1.739 19.248 19.248 0 0 0 11.267-17.497v-243.36a19.14 19.14 0 0 0-5.296-13.233Zm2.538 256.593a16.514 16.514 0 0 1-4.836 11.647 16.492 16.492 0 0 1-11.645 4.829H182.987a16.493 16.493 0 0 1-16.467-16.476V223.473a16.508 16.508 0 0 1 4.826-11.651 16.494 16.494 0 0 1 11.641-4.839h63.786a16.381 16.381 0 0 1 13.943 7.714l13.212 21.043 12.634 20.105 2.371 3.781 14.454 23.003.166.263h267.708a16.49 16.49 0 0 1 11.65 4.833 16.51 16.51 0 0 1 4.831 11.656v243.36ZM423.691 282.629H303.387l.166.263h120.8l-.662-.263Zm0 0H303.387l.166.263h120.8l-.662-.263Zm0 0H303.387l.166.263h120.8l-.662-.263Zm0 0-6.4-2.497H305.083l-14.894-23.707-1.256 3.201 14.454 23.003.166.263h120.8l-.662-.263Z"/>
  <path fill="#FFB8B8" d="m107.475 397.094-7.9 16.526-67.464-22.622 11.658-24.39 63.706 30.486Z"/>
  <path fill="#2F2E41" d="m88.48 424.7 15.969-33.405 20.055 9.598-24.827 51.936-1.534-.734A20.54 20.54 0 0 1 87.641 440.4a20.552 20.552 0 0 1 .84-15.7Z"/>
  <path fill="#FFB8B8" d="m123.378 544.668-18.297-.618-.771-71.264 21.45 1.267-2.382 70.615Z"/>
  <path fill="#2F2E41" d="m90.488 538.32 36.987 1.249-.749 22.231-57.508-1.942.058-1.7a20.546 20.546 0 0 1 6.5-14.314 20.526 20.526 0 0 1 14.712-5.524Zm62.356-291.899s-56-14.194-81.387 6.724L57.27 294.234.523 374.919l82.134 49.307 14.933-37.354-35.84-17.93 43.307-37.354-7.467 197.229 28.374 4.482s62.721-243.547 26.88-286.878Z"/>
  <path fill="#E4E4E4" d="m67.883 259.222.683-1.214c7.195-12.798 6.03-33.639 3.784-48.868-1.88-12.756-1.823-35.235-1.445-51.847a24.694 24.694 0 0 1 5.667-15.335 24.674 24.674 0 0 1 14.002-8.429c17.036-3.547 37.951-4.298 48.901-4.431a11.367 11.367 0 0 1 7.971 3.218 11.38 11.38 0 0 1 3.442 7.88c.334 17.889.23 50.511-4.207 68.013-6.585 25.977 3.712 43.63 3.817 43.805l.622 1.039-83.237 6.169Z"/>
  <path fill="#FFB8B8" d="M39.077 330.864a13.838 13.838 0 0 0 5.255-20.55l31.605-136.359H52.043L24.151 307.626a13.912 13.912 0 0 0 5.09 24.125c3.277.919 6.776.603 9.836-.887Zm192.168-134.226-52.742-49.918-14.255 19.967 35.637 31.378-46.736 37.133c-.337-.023-.674-.051-1.017-.051a14.974 14.974 0 0 0-14.824 17.15 14.98 14.98 0 0 0 10.671 12.217 14.967 14.967 0 0 0 18.972-12.4l.148.148 64.146-55.624Z"/>
  <path fill="#E4E4E4" d="M87.219 135.282s-32.936-5.405-35.922 19.996c-2.987 25.4-4.48 25.4-4.48 25.4s23.893-4.482 29.866 1.495c5.974 5.976 10.536-46.891 10.536-46.891Zm49.199-3.911s26.88-4.483 38.827 7.471c11.946 11.953 17.92 14.941 17.92 14.941s-26.88 14.942-16.427 28.389c0 0-28.374-13.447-32.854-8.965-4.48 4.483-7.466-41.836-7.466-41.836Z"/>
  <path fill="#2F2E41" d="M112.841 44.624c-8.479-6.776-10.707-19.852-5.788-29.53 4.92-9.676 16.042-15.507 26.885-15.071 10.842.435 21.059 6.663 27.341 15.517 8.823 12.436 10.675 29.72 22.408 39.456 10.597 8.794 25.779 8.542 39.529 7.843 4.635-.236 9.419-.51 13.578-2.57 4.159-2.06 7.558-6.406 7.021-11.018 3.455 5.47 1.451 13.142-3.184 17.656-4.634 4.514-11.233 6.406-17.657 7.159a65.575 65.575 0 0 1-33.217-5.172 65.616 65.616 0 0 1-26.296-20.954c-4.784-6.603-8.476-14.293-15.041-19.127-6.564-4.835-17.51-5.172-21.54 1.918-1.994 3.506-1.798 7.904-3.631 11.497-1.833 3.593-7.785 5.53-9.55 1.903"/>
  <path fill="#2F2E41" d="M111.545 116.679c22.85 0 41.374-18.535 41.374-41.397 0-22.863-18.524-41.397-41.374-41.397S70.17 52.419 70.17 75.281c0 22.862 18.524 41.397 41.375 41.397Z"/>
  <path fill="#FFB8B8" d="M111.295 119.919c18.708 0 33.874-15.174 33.874-33.892 0-18.718-15.166-33.892-33.874-33.892-18.708 0-33.874 15.174-33.874 33.892 0 18.718 15.166 33.892 33.874 33.892Z"/>
  <path fill="#2F2E41" d="M80.409 61.136c4.603 1.007 3.097 8.734 6.735 11.731 3.281 2.704 8.007-.077 12.137-1.083 5.214-1.27 10.672.59 15.486 2.964 4.814 2.373 9.456 5.318 14.708 6.424 5.252 1.106 11.478-.14 14.422-4.63 2.815-4.293 1.779-10.082-.423-14.72a34.172 34.172 0 0 0-12.406-14.096 34.146 34.146 0 0 0-36.096-.5 34.173 34.173 0 0 0-12.79 13.747"/>
</svg>
