<svg fill="none" xmlns="http://www.w3.org/2000/svg" viewBox="0 0 498 496"><path fill-rule="evenodd" clip-rule="evenodd" d="M17 1.307C12.092 2.854 3.721 11.522 2.216 16.616.52 22.36.52 81.64 2.216 87.384c1.623 5.493 9.907 13.777 15.4 15.4 2.638.779 11.397 1.216 24.397 1.216h20.28l14.604 10.874c15.857 11.808 19.87 13.704 26.945 12.734 9.326-1.278 15.856-8.281 16.868-18.09l.57-5.518h5.494c3.022 0 7.346-.547 9.61-1.216 5.493-1.623 13.777-9.907 15.4-15.4 1.676-5.673 1.699-65.04.027-70.62-.654-2.182-3.134-6.131-5.512-8.776-7.386-8.215-5.511-8.003-69.727-7.886C38.752.171 19.362.563 17 1.307Zm344 0c-4.908 1.547-13.279 10.215-14.784 15.309C345.375 19.463 345 30.373 345 52c0 21.627.375 32.537 1.216 35.384 1.623 5.493 9.907 13.777 15.4 15.4 2.264.669 6.588 1.216 9.61 1.216h5.494l.57 5.518c1.012 9.809 7.542 16.812 16.868 18.09 7.076.97 11.088-.926 26.945-12.734L435.707 104h20.28c13 0 21.759-.437 24.397-1.216 5.493-1.623 13.777-9.907 15.4-15.4 1.676-5.673 1.699-65.04.027-70.62-.654-2.182-3.134-6.131-5.512-8.776-7.386-8.215-5.511-8.003-69.727-7.886C382.751.171 363.361.563 361 1.307ZM134.545 18.455 137 20.909v62.182l-2.455 2.454c-2.364 2.365-2.951 2.455-16 2.455H105v11.021c0 10.74-.063 11.051-2.462 12.143-2.268 1.034-3.733.169-18.675-11.021L67.65 88H21.91l-2.455-2.455L17 83.091V20.909l2.455-2.454L21.91 16h110.182l2.454 2.455Zm344 0L481 20.909v62.182l-2.455 2.454L476.091 88h-45.752L414.42 99.975c-8.756 6.586-16.618 11.986-17.47 12-3.268.053-3.95-2.223-3.95-13.175V88h-13.545c-13.049 0-13.636-.09-16-2.455L361 83.091V20.909l2.455-2.454L365.909 16h110.182l2.454 2.455Zm-264.58 47.448c-33.96 7.323-60.067 33.61-67.068 67.532-2.879 13.95-2.285 31.861 1.666 50.25 1.515 7.047 1.5 7.267-.754 11.5-1.887 3.542-2.295 5.838-2.278 12.815.019 7.735.326 9.067 3.412 14.801 1.865 3.466 4.73 7.429 6.366 8.806 4.658 3.919 11.939 7.224 17.554 7.969 3.87.514 5.137 1.095 5.137 2.359 0 6.937 8.627 22.867 16.437 30.35 3.641 3.489 14.398 10.751 17.696 11.948.677.245-1.443 12.527-2.27 13.147-.2.15-3.813 1.507-8.029 3.017-17.893 6.406-32.882 15.823-47.32 29.729-16.783 16.165-27.147 32.546-34.41 54.384-6.289 18.911-7.104 27.217-7.104 72.368V496h272v-39.122c0-44.991-.823-53.48-6.985-72.011-6.833-20.549-15.546-35.07-30.309-50.513-15.152-15.849-30.946-26.371-50.206-33.447-4.95-1.819-9.163-3.418-9.363-3.553-.818-.555-2.95-12.875-2.27-13.121.406-.147 3.583-1.947 7.061-4 12.277-7.248 22.38-20.299 25.706-33.21l1.756-6.817 4.942-.656c5.44-.721 12.753-4.068 17.359-7.943 1.636-1.377 4.505-5.34 6.374-8.806 3.11-5.769 3.396-7.019 3.378-14.801-.016-6.878-.454-9.326-2.293-12.831-2.206-4.203-2.229-4.528-.778-11 4.232-18.865 4.525-40.994.735-55.448-7.695-29.347-31.964-53.724-61.607-61.88-7.244-1.994-10.742-2.229-37-2.49-25.134-.25-30.138-.044-37.535 1.552ZM287.5 83.275c11.345 3.792 19.837 9.076 28.493 17.732 17.004 17.004 23.278 37.276 20.072 64.854-.661 5.682-1.408 10.869-1.66 11.527-.349.909-2.016.826-6.927-.346l-6.468-1.542-.005-5.384c-.007-7.567-1.755-12.55-6.155-17.549-5.638-6.406-9.449-7.837-22.973-8.631-10.542-.619-12.196-.989-17.801-3.976-3.398-1.811-7.306-4.633-8.683-6.269-3.757-4.466-7.118-11.674-7.912-16.972l-.708-4.719H241v2.782c0 1.53.598 5.089 1.33 7.908l1.329 5.125-18.079.343c-17.904.339-18.145.373-24.76 3.507-9.201 4.359-15.095 10.088-19.457 18.916-3.081 6.233-3.681 8.584-4.11 16.115l-.503 8.817-6.347 1.536c-4.821 1.166-6.459 1.248-6.808.339-1.326-3.457-2.789-23.027-2.307-30.873 1.953-31.835 24.427-57.851 56.212-65.073 4.467-1.015 13.152-1.297 34-1.102 27.344.256 28.187.325 36 2.935Zm-29.952 64.662c8.555 7.886 20.4 12.063 34.208 12.063 7.565 0 8.567.232 10.844 2.509l2.509 2.509-.304 38.296-.305 38.296-3.735 7.553c-4.498 9.099-10.291 14.769-19.585 19.172l-6.68 3.165h-51l-6.5-3.11c-9.521-4.556-15.272-10.139-19.728-19.15l-3.772-7.63-.308-38.055c-.229-28.245.015-39.215.945-42.555 1.52-5.463 9.655-14.051 14.863-15.693 2.021-.637 12.113-1.146 23.888-1.205l20.388-.102 4.272 3.937Zm-46.093 30.518C206.494 183.415 210.009 192 217 192c1.948 0 3.998-.907 5.545-2.455 1.548-1.547 2.455-3.597 2.455-5.545s-.907-3.998-2.455-5.545C220.998 176.907 218.948 176 217 176s-3.998.907-5.545 2.455Zm64 0C270.494 183.415 274.009 192 281 192c4.111 0 8-3.889 8-8 0-4.111-3.889-8-8-8-1.948 0-3.998.907-5.545 2.455ZM177 208c0 17.653.137 17.337-6.329 14.636-12.443-5.199-12.584-23.844-.221-29.229 6.653-2.898 6.55-3.126 6.55 14.593Zm152.938-13.177c4.901 3.619 6.562 6.955 6.562 13.177 0 4.352-.529 6.562-2.062 8.615-2.872 3.847-6.372 6.251-10.188 6.998l-3.25.637v-32.5l3.25.637c1.788.35 4.347 1.446 5.688 2.436ZM94.5 209.149c-1.65.611-9.572 6.002-17.603 11.981L62.293 232h-20.28c-13 0-21.759.437-24.397 1.216-5.493 1.623-13.777 9.907-15.4 15.4-1.697 5.744-1.697 65.024 0 70.768 1.623 5.493 9.907 13.777 15.4 15.4 5.866 1.733 112.902 1.733 118.768 0 5.493-1.623 13.777-9.907 15.4-15.4 1.676-5.673 1.699-65.04.027-70.62-.654-2.182-3.134-6.131-5.512-8.776-5.05-5.617-10.79-7.988-19.337-7.988h-5.682l-.57-5.518c-1.067-10.34-7.906-17.245-17.851-18.023-2.948-.231-6.709.08-8.359.69Zm295.711-.02c-7.134 2.057-13.191 11.057-13.205 19.621L377 232h-5.634c-3.099 0-7.486.547-9.75 1.216-5.493 1.623-13.777 9.907-15.4 15.4-1.697 5.744-1.697 65.024 0 70.768 1.623 5.493 9.907 13.777 15.4 15.4 5.866 1.733 112.902 1.733 118.768 0 5.493-1.623 13.777-9.907 15.4-15.4 1.676-5.673 1.699-65.04.027-70.62-.654-2.182-3.134-6.131-5.512-8.776-6.54-7.275-9.587-7.988-34.124-7.988h-20.468l-14.604-10.86c-17.856-13.279-21.535-14.71-30.892-12.011ZM103.8 225.2c.785.785 1.2 4.933 1.2 12V248h13.545c13.049 0 13.636.09 16 2.455l2.455 2.454v62.182l-2.455 2.454-2.454 2.455H21.909l-2.454-2.455L17 315.091v-62.182l2.455-2.454L21.91 248h45.752l15.92-11.975c8.755-6.586 16.617-11.986 17.469-12 .852-.014 2.09.515 2.75 1.175Zm168.772 2.271c-.818 4.355-4.98 9.384-9.243 11.165-2.336.976-8.252 1.364-20.797 1.364H225v16.178l20.25-.339 20.25-.339 6.301-3.417c3.466-1.879 7.429-4.756 8.806-6.392 3.757-4.466 7.118-11.674 7.912-16.972l.708-4.719h-16.004l-.651 3.471Zm141.848 8.554L430.339 248h45.752l2.454 2.455 2.455 2.454v62.182l-2.455 2.454-2.454 2.455H365.909l-2.454-2.455-2.455-2.454v-62.182l2.455-2.454c2.364-2.365 2.951-2.455 16-2.455H393v-10.8c0-10.952.682-13.228 3.95-13.175.853.014 8.714 5.414 17.47 12Zm-143.399 58.586 1.247 6.61-11.634 11.634L249 324.489l-11.634-11.634-11.634-11.634 1.247-6.61 1.247-6.611h41.548l1.247 6.611ZM226 324.5l11.467 11.499-10.934 10.967c-6.013 6.032-11.027 10.87-11.143 10.751-.115-.119-1.187-9.843-2.382-21.607-1.795-17.672-1.941-21.537-.84-22.235.732-.464 1.564-.851 1.848-.86.284-.008 5.677 5.16 11.984 11.485Zm59.832-10.625c1.101.698.955 4.563-.84 22.235-1.195 11.764-2.267 21.488-2.382 21.607-.116.119-5.13-4.719-11.143-10.751l-10.934-10.967L272 324.5c6.307-6.325 11.7-11.493 11.984-11.485.284.009 1.116.396 1.848.86Zm-86.964 41.375c1.818 18.837 3.54 35.097 3.827 36.131.418 1.503 4.325-1.916 19.414-16.99L241 355.52V416h16v-60.48l18.891 18.871c15.089 15.074 18.996 18.493 19.414 16.99.287-1.034 2.009-17.294 3.827-36.131 1.817-18.837 3.623-34.25 4.012-34.25 1.723 0 14.504 8.148 21.813 13.905 19.202 15.124 33.56 37.581 40.34 63.095l3.056 11.5.411 35.25.411 35.25h-240.35l.411-35.25.411-35.25 3.165-12c6.779-25.701 22.013-48.758 42.711-64.645 5.305-4.071 18.056-11.812 19.509-11.844.293-.006 2.019 15.402 3.836 34.239Z" fill="#000"/><path d="M287.5 83.275c11.345 3.792 19.837 9.076 28.493 17.732 17.004 17.004 23.278 37.276 20.072 64.854-.661 5.682-1.408 10.869-1.66 11.527-.349.909-2.016.826-6.927-.346l-6.468-1.542-.005-5.384c-.007-7.567-1.755-12.55-6.155-17.549-5.638-6.406-9.449-7.837-22.973-8.631-10.542-.619-12.196-.989-17.801-3.976-3.398-1.811-7.306-4.633-8.683-6.269-3.757-4.466-7.118-11.674-7.912-16.972l-.708-4.719H241v2.782c0 1.53.598 5.089 1.33 7.908l1.329 5.125-18.079.343c-17.904.339-18.145.373-24.76 3.507-9.201 4.359-15.095 10.088-19.457 18.916-3.081 6.233-3.681 8.584-4.11 16.115l-.503 8.817-6.347 1.536c-4.821 1.166-6.459 1.248-6.808.339-1.326-3.457-2.789-23.027-2.307-30.873 1.953-31.835 24.427-57.851 56.212-65.073 4.467-1.015 13.152-1.297 34-1.102 27.344.256 28.187.325 36 2.935Z" fill="#54AB61"/></svg>