<svg xmlns="http://www.w3.org/2000/svg" fill="none" viewBox="0 0 385 400">
  <g clip-path="url(#a)">
    <path fill="#000" fill-rule="evenodd" d="M183.5 1.068c-24.364 3.319-45.429 13.16-57.929 27.065-2.582 2.87-6.353 8.695-8.382 12.942-3.488 7.302-3.898 7.756-7.522 8.349-5.65.923-12.894 4.932-16.656 9.216-10.79 12.289-12.513 32.494-5.362 62.859l2.67 11.334-2.715 3.226c-5.222 6.205-7.899 12.898-8.378 20.941-.53 8.917.59 13.618 4.996 20.965 5.224 8.711 13.45 13.966 25.778 16.471 2.226.452 2.735 1.481 4.644 9.405 3.754 15.582 12.288 29.7 24.397 40.358l5.959 5.246v9.17c0 6.405-.377 9.321-1.25 9.669-.687.274-23.975 9.358-51.75 20.188-27.775 10.829-52.975 21.078-56 22.775-3.025 1.696-9.337 6.947-14.027 11.669-9.219 9.281-14.687 18.321-19.105 31.584l-2.332 7-.332 66c-.234 46.333-.002 67.122.777 69.767 1.457 4.946 6.512 10.597 11.51 12.868 3.688 1.675 7.671 1.823 49.804 1.843l45.796.022 2.454-2.455c3.129-3.128 3.129-6.962 0-10.09-2.408-2.409-2.766-2.455-19-2.455H75v-66.5c0-65.167-.04-66.54-2-68.5-2.978-2.978-8.33-2.667-10.927.635-1.968 2.502-2.073 3.864-2.073 27V414H14.823l.37-25.25c.358-24.447.455-25.488 3.067-32.727 4.863-13.48 15.375-26.254 26.625-32.355 2.538-1.376 18.7-7.989 35.916-14.694 27.952-10.888 31.482-12.036 33-10.738 11.433 9.783 37.202 30.737 38.883 31.619 3.833 2.009 10.673 1.392 14.676-1.325l3.64-2.47V497h-16.545c-16.234 0-16.592.046-19 2.455-1.35 1.35-2.455 3.62-2.455 5.045 0 1.425 1.105 3.695 2.455 5.045l2.454 2.455 114.796-.022c109.603-.021 114.976-.106 118.795-1.874 9.566-4.429 12.5-10.676 12.5-26.617 0-10.959-.131-11.709-2.455-14.032-3.128-3.129-6.962-3.129-10.09 0C369.149 471.76 369 472.57 369 482.8c0 15.056 1.467 14.2-24.329 14.2H324v-68h45v6.545c0 5.617.348 6.894 2.455 9 3.15 3.151 6.964 3.127 10.153-.062l2.516-2.516-.367-39.734c-.414-44.819-.428-44.922-8.268-60.905-5.38-10.97-16.286-23.237-25.787-29.009-3.399-2.065-29.324-12.709-58.167-23.883L239.5 268.278l-.285-9.55-.285-9.55 5.162-4.339c11.626-9.771 21.097-25.267 25.058-40.994 2.229-8.854 2.892-9.805 6.85-9.83 7.984-.052 21.83-11.022 26.199-20.756 3.313-7.381 3.154-19.94-.347-27.407-1.456-3.106-4.494-7.494-6.75-9.75-4.631-4.631-4.882-6.167-2.596-15.862 1.655-7.023 6.125-16.494 10.967-23.24 1.777-2.475 3.747-6.03 4.379-7.9 1.688-4.996 1.361-13.035-.716-17.607-2.544-5.6-11.875-16.317-19.46-22.353l-6.388-5.083.484-5.033.483-5.034-6.912-6.745C264.235 16.405 246.11 7.44 226.098 2.892 215.996.595 193.91-.351 183.5 1.068Zm33.058 15.409c4.981.808 12.181 2.433 16 3.61 7.521 2.32 21.443 8.817 25.406 11.856l2.465 1.889-2.442 1.977c-1.849 1.497-2.442 2.944-2.442 5.958 0 5.1 1.449 6.754 8.888 10.142 7.502 3.417 17.105 11.052 24.192 19.235 6.888 7.954 7.091 10.823 1.345 19.014-5.348 7.625-9.532 16.774-11.588 25.342-.924 3.85-1.824 7.563-2 8.25-.175.688-1.198 1.25-2.271 1.25-1.392 0-2.153-.932-2.652-3.25-1.633-7.581-6.793-12.738-12.754-12.746-3.801-.005-7.705-4.054-7.705-7.991 0-6.432-5.727-15.206-12.108-18.55-4.006-2.1-21.204-5.315-34.706-6.487-20.709-1.798-51.238 2.039-60.958 7.663-5.507 3.185-8.919 8.424-10.354 15.895-1.409 7.337-2.391 8.447-8.473 9.583-5.877 1.098-10.011 4.783-11.604 10.341-1.443 5.038-1.014 4.576-5.099 5.497-3.344.755-3.496.659-4.503-2.837-4.453-15.464-5.958-36.267-3.289-45.463 1.877-6.464 6.521-11.302 11.632-12.116 2.179-.347 5.987-1.406 8.462-2.354 4.712-1.804 4.446-1.425 11.388-16.173 2.659-5.65 11.516-14.488 18.916-18.877 16.793-9.961 43.783-14.302 66.254-10.658ZM216.5 92.55c17.026 2.69 18.816 3.76 19.869 11.869 1.245 9.589 8.164 17.139 17.491 19.087l3.36.701-.497 35.647c-.552 39.58-.846 41.721-7.504 54.646-4.554 8.842-17.168 21.67-25.719 26.157-19.583 10.274-40.681 10.8-60 1.496-18.688-9-30.787-24.409-34.935-44.493-1.235-5.98-1.565-14.531-1.565-40.603v-33.028l4.379-1.103c8.066-2.031 15.621-10.659 15.621-17.839 0-5.001 1.958-7.913 6.399-9.516 14.537-5.25 40.987-6.516 63.101-3.021ZM112 159.43v20.43l-3.168-.908C99.878 176.384 94 168.674 94 159.5c0-6.016 3.09-12.716 7.221-15.657 2.352-1.675 8.378-4.421 10.529-4.799.137-.024.25 9.15.25 20.386Zm165.79-17.518c4.561 2.351 9.729 7.637 11.149 11.403 3.355 8.9-2.281 21.231-11.254 24.621-5.86 2.214-5.685 2.782-5.685-18.436 0-12.831.356-19.5 1.04-19.5.572 0 2.709.861 4.75 1.912ZM171.5 261.257c5.52 1.612 9.854 2.044 20.5 2.044 13.121 0 16.624-.566 29.661-4.788 2.046-.663 2.178-.35 2.5 5.922l.339 6.621-11.671 9.546c-8.819 7.213-12.055 10.505-13.242 13.472L198.016 298h-12.032l-1.573-3.93c-1.19-2.974-4.476-6.315-13.509-13.733-7.432-6.104-11.742-10.312-11.42-11.152.285-.742.518-3.614.518-6.383 0-4.769.119-4.997 2.25-4.312 1.238.398 5.4 1.643 9.25 2.767Zm-10.213 30.713c4.833 4.019 8.658 7.629 8.5 8.021-.978 2.432-10.415 15.939-11 15.745-.393-.13-7.49-5.852-15.771-12.715l-15.057-12.48 10.77-4.17c8.764-3.393 11.051-3.941 12.271-2.94.825.677 5.454 4.52 10.287 8.539Zm93.49-.91c-.337.88-29.07 24.907-29.777 24.9-.275-.003-2.904-3.653-5.842-8.113-6.186-9.389-6.93-7.325 6.707-18.602l8.364-6.917 10.413 4.004c5.727 2.202 10.288 4.329 10.135 4.728Zm48.435 18.018c17.208 6.643 33.538 13.268 36.288 14.723 7.862 4.161 18.381 15.389 22.791 24.328 5.689 11.533 6.672 17.941 6.692 43.621L369 414h-45v-24.365c0-23.136-.105-24.498-2.073-27-2.597-3.302-7.949-3.613-10.927-.635-1.96 1.96-2 3.333-2 68.5V497h-96V326.06l3.64 2.47c4.546 3.086 11.484 3.333 15.86.565 1.65-1.044 11.1-8.676 21-16.961 9.9-8.284 18.095-15.078 18.212-15.098.116-.02 14.291 5.399 31.5 12.042ZM198 405v92h-12V313h12v92ZM60 463v34H39.33c-17.833 0-20.924-.227-22.5-1.655-1.7-1.538-1.83-3.935-1.83-34V429h45v34Z" clip-rule="evenodd"/>
    <path fill="#F4ADA4" d="M216.558 16.477c4.981.808 12.181 2.433 16 3.611 7.521 2.32 21.443 8.816 25.406 11.855l2.465 1.889-2.442 1.977c-1.849 1.497-2.442 2.944-2.442 5.958 0 5.101 1.449 6.754 8.888 10.142 7.502 3.417 17.105 11.052 24.192 19.235 6.888 7.954 7.091 10.823 1.345 19.014-5.348 7.625-9.532 16.774-11.588 25.342-.924 3.85-1.824 7.563-2 8.25-.175.688-1.198 1.25-2.271 1.25-1.392 0-2.153-.932-2.652-3.25-1.633-7.581-6.793-12.738-12.754-12.746-3.801-.005-7.705-4.054-7.705-7.991 0-6.432-5.727-15.206-12.108-18.55-4.006-2.1-21.204-5.315-34.706-6.487-20.709-1.798-51.238 2.039-60.958 7.663-5.507 3.185-8.919 8.424-10.354 15.895-1.409 7.337-2.391 8.447-8.473 9.583-5.877 1.098-10.011 4.783-11.604 10.341-1.443 5.038-1.014 4.576-5.099 5.497-3.344.755-3.496.659-4.503-2.837-4.453-15.464-5.958-36.267-3.29-45.463 1.878-6.464 6.522-11.302 11.633-12.116 2.179-.347 5.987-1.406 8.462-2.354 4.712-1.804 4.446-1.425 11.388-16.173 2.659-5.649 11.516-14.488 18.916-18.877 16.793-9.961 43.783-14.302 66.254-10.658Z"/>
  </g>
  <defs>
    <clipPath id="a">
      <path fill="#fff" d="M0 0h385v400H0z"/>
    </clipPath>
  </defs>
</svg>
