<svg xmlns="http://www.w3.org/2000/svg" fill="none" viewBox="0 0 512 512">
  <g clip-path="url(#a)">
    <path fill="#EC1515" d="M95.2 10.6c-21.8 7.1-35.8 15.7-52.3 32.3-11.8 11.8-19.3 21.9-25 33.7-4.2 8.9-8.1 19.7-6.9 18.9.7-.4 9.2 7.4 19.7 18 10.2 10.2 18.7 18.5 18.9 18.3.2-.2 1-3.7 1.9-7.8 4.1-19.3 11.3-33.6 23.2-46.1C90.4 61.5 108.6 53 135 49.8c5.2-.6 9.7-1.3 9.9-1.5.3-.2-8.6-9.5-19.7-20.6L105 7.4l-9.8 3.2ZM211 131.9c-19.1 7.1-33.4 16.3-48.1 31-12 12-19 21.8-26 36.6l-4.9 10.1 19 19c10.5 10.4 19.4 18.8 19.7 18.7.4-.1 1.5-3.7 2.4-8 3.8-17.6 12-32.5 24.5-44.4 7.7-7.2 13.7-11.2 23.7-15.9 10.3-4.8 18.9-6.9 31.2-7.7l9.7-.6-20.9-20.9c-11.4-11.4-21.2-20.8-21.8-20.7-.5 0-4.4 1.3-8.5 2.8Zm129.6 128.5c-2.5 36.2-26.3 66.2-60.5 76.6-4 1.2-9.5 2.5-12.2 2.9l-4.9.6 19.7 19.7 19.8 19.7 11-5.3c31.3-15.1 55.4-42.1 67-75l2.8-7.8-20.4-20.4c-11.2-11.2-20.7-20.4-21-20.4-.3 0-.9 4.2-1.3 9.4Zm122.5 110.4c-.3 7-4.5 26.6-7.1 33.2-5.3 13.5-9.9 20.8-18.9 30.4-12.8 13.4-28.5 21.7-49.4 26.2l-7.8 1.6 13.4 13.7c7.4 7.5 16 16.2 19.1 19.5l5.7 5.8 4.7-1.7c8.8-3.3 23.8-11.5 31.8-17.3 9.8-7.3 24.4-22.4 30.5-31.7 5.8-8.7 11.8-20.7 15.3-30.4 2.8-7.7 4.8-15.7 3.8-14.6-.3.3-9.7-8.5-20.7-19.5l-20.1-20.1-.3 4.9Z"/>
    <path fill="#EC4015" d="M10.1 96.8c-1.5 2.9-4.8 16.9-6.5 27.7-1.4 9.5-2.3 20-2.9 38l-.3 8 23.2 22.9 23.3 22.9v-21.4c.1-17 1.3-45.8 2.5-60.4.1-1.4-5.7-7.9-18.5-20.8C20.7 103.4 12 95 11.7 95c-.4 0-1.1.8-1.6 1.8Zm121.4 115.4c-5.7 17.6-6.9 25-7 43.3 0 8.9.6 19.1 1.3 23.1l1.3 7 49.7 49.6 49.7 49.6 7 1.3c4.3.9 13.3 1.4 23.5 1.3 17-.1 24-1.1 38.4-5.5l6.8-2.1-19.3-19.4-19.4-19.4H257c-29.8 0-58.6-16.3-73.6-41.6-8.2-13.9-11.6-26.1-11.8-41.5-.1-5.9-.4-10.5-.7-10.4-.3.2-8.8-7.9-19-18.1-10.1-10.1-18.7-18.4-19.2-18.4-.4 0-.9.6-1.2 1.2Zm239.5 251c-3.6.3-22.9 1-43 1.4-20.1.5-35.3 1-33.9 1.2 1.7.2 9.3 7.1 25.3 23.1l22.9 22.9 10.1-.4c15.2-.7 33.2-2.4 41.4-3.9 10.9-2.1 23.2-5.6 23.2-6.6 0-1.5-36.9-38.6-38.3-38.5-.6 0-4.1.4-7.7.8Z"/>
    <path fill="#EC6B15" d="M0 213.3v42.2L22.6 278c12.4 12.4 23 23.4 23.4 24.5.6 1.2.9-16.4.9-43.2-.1-24.9-.4-45.1-.8-44.8-.4.2-10.6-9.5-22.7-21.6-12-12-22.2-21.9-22.6-21.9-.5 0-.8 19-.8 42.3Zm128.6 76.2c2.8 12.4 11.6 31.5 19.8 43 14.3 19.8 33.2 35 56.3 45 7.3 3.2 19.3 6.9 19.9 6.2.2-.2-21.5-22.1-48.2-48.7-37.9-37.9-48.4-47.8-47.8-45.5Zm83.1 176.2c-.4.4 9.5 11 22 23.5l22.8 22.8h86l-23.3-23.3-23.2-23.2-41.8-.3c-23-.2-42.1 0-42.5.5Z"/>
    <path fill="#EC9615" d="M0 298.5v43.1l25.7 25.6c14.2 14.2 25.9 25.5 26.1 25.3.2-.2-.3-4.5-1.2-9.7-2.2-13.2-2.7-21.6-3.4-53l-.7-27.8-23.2-23.2L0 255.5v43Zm143.3 186.2c14.2 14.2 25.5 26.2 25.1 26.6-.4.3 19.3.6 43.7.7h44.4l-22.8-22.8c-12.5-12.5-22.5-23.1-22.2-23.4.3-.3-7.9-.6-18.2-.7-33.4-.3-69.8-3-74.5-5.7-.7-.3 10.3 11 24.5 25.3Z"/>
    <path fill="#ECC115" d="M.6 352.7c.8 15.9 2.4 33.2 4 41.6 4.4 23 13.9 45.5 25.9 61.2 4.2 5.5 20.1 21.4 26.2 26.2 14.4 11.3 38.4 21.4 61.1 25.7 12.2 2.3 49.8 5 50.6 3.7.8-1.2-51.8-53.1-53.7-53.1-3.2 0-17.4-6-23.8-10.1-11.8-7.5-24.7-21.7-30.9-33.9-2.3-4.5-5.8-14-6.6-17.5-.3-1.9-50.2-52.6-52.3-53.3-.6-.2-.7 3.9-.5 9.5Z"/>
    <path fill="#EC1540" d="M157.5.7c-20 .8-46.5 4.2-49.1 6.4-.6.5-1.4.6-1.7.2-.4-.3-.7-.2-.7.3 0 .4 9 9.9 19.9 20.9l20 20 11.3-.6c6.2-.4 28.9-.8 50.3-.9 21.5-.2 38.1-.5 36.9-.7-1.1-.2-12.3-10.7-24.9-23.3l-23-23-16 .2c-8.8.1-19.1.3-23 .5ZM237 125.4c-4.7.7-10.3 1.9-12.4 2.6l-3.8 1.2 21.2 21.3 21.2 21.2 5.8.6c8.6.9 21.9 5.8 30.6 11.2 22.6 14.1 38.2 38.2 40.8 63.1.4 3.6 41.7 45 42.8 43 4.7-8.3 5.7-44 1.9-61.1-3.8-16.6-9.7-31-18-43.5-4.7-7.2-5.1-7.8-8.3-10.8-1.6-1.5-2.8-3.2-2.8-3.9 0-.6-.5-1.5-1.2-1.9-.7-.5-.8-.2-.3.7.5.8-.4.3-1.8-1s-2.5-2.9-2.4-3.5c.1-.6-.3-1-.9-.9-.6.1-2.6-1.4-4.5-3.5-1.9-2-2.5-3-1.4-2.2 2 1.5 2 1.4.1-.8-1.1-1.2-2.3-2.2-2.8-2.2s-1.9-.9-3.1-2.1C326 142 305.8 132.2 285 127.4c-13.1-3.1-35.2-4-48-2Zm227.7 190.7c-.3 26.1-.8 48.5-1.1 49.8-.3 1.3-.2 2.1.1 1.7.4-.4 9.8 8.4 20.8 19.4 11.1 11.1 20.2 19.6 20.3 18.8.1-.7 1-5.2 2.1-9.9 2.7-12.3 4-28.2 4.7-56l.6-24.4-23.5-23.4-23.4-23.3-.6 47.3Z"/>
    <path fill="#EC156B" d="M219.8 23.2 243 46.5l49.8.3 49.7.3L319 23.5 295.5 0h-99l23.3 23.2ZM364.5 106c-3.8 8-3.6 20 .5 28 7.2 14 25.9 20.3 40.4 13.7 3.1-1.4 5.6-2.8 5.6-3.1 0-.3-.6-.3-1.3-.1-.7.3-10.6-8.9-22.4-20.7l-21.2-21.3-1.6 3.5ZM348 163.3c6.3 6.6 7 7.2 7 6.2 0-.7-9.2-9.9-11.5-11.5-1.1-.8.9 1.6 4.5 5.3Zm117.1 55.8.1 49.6 23.4 23.4 23.4 23.4v-99L488.5 193l-23.6-23.5.2 49.6Z"/>
    <path fill="#EC1596" d="M319 23.5 342.5 47l5.5.5c3 .2 10.2.7 16 1 39.6 2.2 65.9 15.2 83.1 41.3 10.8 16.4 15.6 36.4 17.2 71.5l.4 7.9 23.6 23.6 23.7 23.7V194c0-12.4-.5-31-1-41.4-1.1-19.3-4.3-41.8-6-42.4-.6-.2-.7-.9-.4-1.4.4-.6.3-.8-.3-.5-1.3.8-101.6-99.7-100.6-100.8.4-.6.4-.7-.1-.3-.5.4-2 .1-3.5-.6-7.2-3.8-42-6.5-81.6-6.6h-23L319 23.5Z"/>
    <path fill="#EC1596" d="M384.5 89.3c-2.2.8-5.4 2.1-7.2 3-3.6 1.9-10.3 8.4-10.3 10.1 0 .6 9.4 10.5 20.9 22l20.9 20.9 3.1-1.9c3.4-2 8-8 10.2-13.4 2.1-5.3 1.7-17.5-.8-23.1-2.9-6.5-8.6-12.4-14.7-15.4-6.4-3.1-16.3-4.1-22.1-2.2Z"/>
    <path fill="#EC15C1" d="M452.7 58.2c28.7 28.7 52.5 51.9 52.9 51.5.4-.4.2-.7-.4-.7-.6 0-.9-.6-.6-1.4 1.5-4-12.8-37.5-19.7-46.2-1.6-2-2.9-4.1-2.9-4.6 0-2-25-25.7-32-30.3-13.4-8.7-41.7-20.6-45.7-19.1-.7.3-1.3.1-1.3-.4 0-.6-.6-1-1.3-1-.7 0 22.3 23.5 51 52.2Z"/>
  </g>
  <defs>
    <clipPath id="a">
      <path fill="#fff" d="M0 0h512v512H0z"/>
    </clipPath>
  </defs>
</svg>
