<svg xmlns="http://www.w3.org/2000/svg" fill="none" viewBox="0 0 512 452">
  <path fill="#000" fill-rule="evenodd" d="M177.977 2.276c-17.004 5.798-29.334 19.414-33.471 36.964-.957 4.059-1.482 11.602-1.491 21.451L143 75.882l-50.25.309-50.25.309-7.216 2.638C17.39 85.68 4.492 100.537 1.03 118.596.214 122.847-.018 158.941.199 247.5l.301 123 2.279 6C9.783 394.943 26.552 408.639 45 410.985c10.893 1.385 113.867 1.306 117.872-.09 5.321-1.855 6.655-6.684 3.095-11.209l-2.032-2.585-59.718-.303-59.717-.304-5.785-2.332c-8.105-3.267-16.628-11.398-20.314-19.38l-2.9-6.282-.237-80-.236-80 2.213 3c13.366 18.119 34.271 30.767 57.226 34.624L82 247.39v17.109c0 16.364.112 17.332 2.567 22.26 8.564 17.186 31.556 21.052 45.035 7.573 7.089-7.09 7.851-9.831 8.225-29.582l.335-17.75h124.694l.585 5.75c2.677 26.299 8.185 44.083 18.753 60.552l3.11 4.848-7.902 7.982c-6.748 6.817-8.287 7.909-10.535 7.474-7.102-1.373-8.672-.12-44.155 35.231-38.787 38.644-39.212 39.215-39.212 52.663 0 9.358 2.418 15.418 8.631 21.631 6.709 6.709 11.035 8.363 21.869 8.363 8.049 0 10.187-.36 14-2.362 2.863-1.503 16.456-14.234 37.367-34.997 34.304-34.061 37.101-37.487 36.48-44.693-.269-3.117.451-4.198 7.563-11.351l7.86-7.907 4.707 2.897c22.877 14.076 51.104 20.733 76.852 18.124 19.031-1.928 36.468-7.448 51.346-16.254 3.671-2.173 6.997-3.951 7.391-3.951 1.484 0-.409 16.637-2.532 22.247-4.34 11.465-15.929 20.695-28.589 22.768-3.389.555-32.068.976-66.695.979-59.413.006-60.794.05-62.75 2.006-3.977 3.977-1.564 11.067 4.264 12.53 1.273.32 30.647.426 65.275.236 57.664-.317 63.424-.499 68.461-2.167 19.006-6.295 32.642-20.979 36.533-39.342.794-3.746 1.443-12.327 1.457-19.257l.026-12.5 6.675-7.5c19.844-22.296 30.368-47.836 31.933-77.5 1.74-32.979-10.206-65.876-32.625-89.842L473 157.245l-.017-16.372c-.011-10.33-.546-18.867-1.45-23.13-4.32-20.386-22.178-37.473-42.533-40.698-3.766-.597-25.902-1.033-52.624-1.037L330.252 76l-.501-17.25c-.403-13.888-.917-18.546-2.635-23.9-3.892-12.127-13.065-23.239-24.174-29.285C293.051.181 290.817-.002 235.54.026c-50.099.025-51.16.067-57.563 2.25Zm116.171 15.872c7.476 3.505 13.35 9.559 17.173 17.701 3.037 6.467 3.134 7.115 3.517 23.401l.393 16.75H299l-.006-13.25c-.003-7.287-.497-15.05-1.098-17.25-1.481-5.423-5.206-10.107-9.968-12.537-3.832-1.954-5.492-2.009-52.85-1.74l-48.894.277-3.842 3.106c-7.106 5.745-7.8 7.92-8.18 25.644L173.824 76H158V61.105c0-12.119.376-16.113 2.02-21.436 3.389-10.97 11.432-19.177 22.824-23.289 2.879-1.039 14.493-1.273 54.656-1.1l51 .22 5.648 2.648Zm-11.183 29.786c.569 1.064 1.035 7.814 1.035 15V76h-95V62.2c0-9.4.383-14.183 1.2-15 .898-.898 12.592-1.2 46.465-1.2 43.728 0 45.3.066 46.3 1.934ZM434.5 93.912c4.229 1.701 7.797 4.21 12.088 8.5 8.471 8.472 10.562 14.161 11.186 30.429l.473 12.34-3.927-2.479c-39.513-24.943-90.567-25.594-130.387-1.662-29.997 18.029-50.963 47.495-57.77 81.191l-1.873 9.269-63.145.257-63.145.258v-5.329c0-8.175-2.6-14.416-8.435-20.251-11.21-11.211-28.634-11.299-39.73-.203-4.869 4.868-7.119 10.158-7.772 18.268l-.563 7-4-.289c-10.557-.764-25.69-7.409-35.594-15.631-8.474-7.034-15.167-15.723-19.893-25.825-6.107-13.054-7.204-20.666-6.832-47.397.318-22.759.331-22.885 3.193-29.08 3.01-6.515 10.557-14.64 16.414-17.668 9.005-4.657 1.727-4.503 203.712-4.301l190 .191 6 2.412Zm-23.204 47.126c24.207 5.21 47.796 20.252 62.986 40.164 24.744 32.436 29.553 75.972 12.392 112.198-5.934 12.528-11.433 20.467-21.016 30.343-33.12 34.131-84.725 42.853-127.158 21.492-21.824-10.986-41.791-32.258-51.182-54.527-19.338-45.852-5.721-98.819 33.15-128.943 15.444-11.969 35.631-20.355 54.653-22.705 9.785-1.208 25.315-.359 36.175 1.978ZM369 159.554c-27.755 5.957-50.867 24.599-63.012 50.827-5.384 11.627-7.14 19.309-7.715 33.751-1.036 26.063 7.307 48.111 25.067 66.238 27.101 27.66 67.962 35.054 102.588 18.565 14.552-6.93 27.285-17.663 36.027-30.37 4.601-6.687 10.76-20.106 12.75-27.778 1.713-6.606 1.707-6.758-.332-9.5-1.437-1.933-3.124-2.878-5.504-3.084-4.425-.384-7.172 2.524-8.781 9.297-3.055 12.852-14.355 29.917-25.866 39.059-7.104 5.642-19.494 11.689-28.722 14.018-8.228 2.077-26.366 2.355-33.955.52-22.863-5.526-41.996-20.878-51.601-41.403-5.299-11.324-7.233-21.409-6.735-35.117.748-20.595 6.97-34.751 21.791-49.583 14.868-14.877 28.7-20.948 49.5-21.725 14.694-.548 23.102 1.03 34.728 6.521 19.781 9.341 32.824 24.173 39.805 45.264 1.72 5.195 3.878 10.029 4.797 10.741 2.722 2.109 8.193 1.079 10.461-1.971 1.936-2.605 1.944-2.858.289-9.447-7.987-31.793-35.662-57.952-68.653-64.892-8.796-1.851-28.152-1.814-36.927.069Zm-252.906 54.995c5.88 3.04 6.898 6.315 6.902 22.201L123 251H97v-14.923c0-14.711.038-14.969 2.668-18.095 4.305-5.115 10.621-6.435 16.426-3.433Zm6.902 57.201c-.006 9.536-5.189 15.583-13.356 15.583-8.25 0-12.64-5.307-12.64-15.283V266h26l-.004 5.75ZM299 347.5l-6.46 6.518-5.5-5.5-5.5-5.5L288 336.5l6.46-6.518 5.5 5.5 5.5 5.5L299 347.5Zm-22.851 11.192C282.117 364.573 287 369.747 287 370.19c0 1.313-7.134 8.81-8.383 8.81-.633 0-6.08-4.944-12.105-10.987l-10.953-10.988 4.429-4.512c2.436-2.482 4.627-4.513 4.87-4.513.242 0 5.324 4.812 11.291 10.692Zm-19.915 20.041C262.155 384.636 267 389.954 267 390.55c0 .596-10.034 11.029-22.298 23.184-23.993 23.779-24.625 24.21-33.687 22.995-5.056-.678-8.521-3.291-11-8.295-2.239-4.517-2.555-8.875-.952-13.119.912-2.413 44.462-47.315 45.891-47.315.282 0 5.358 4.83 11.28 10.733Z" clip-rule="evenodd"/>
  <path fill="#54AB61" fill-rule="evenodd" d="M411.296 141.038c24.207 5.21 47.796 20.252 62.986 40.164 24.744 32.436 29.553 75.972 12.392 112.198-5.934 12.528-11.433 20.467-21.016 30.343-33.12 34.131-84.725 42.853-127.158 21.492-21.824-10.986-41.791-32.258-51.182-54.527-19.338-45.852-5.721-98.819 33.15-128.943 15.444-11.969 35.631-20.355 54.653-22.705 9.785-1.208 25.315-.359 36.175 1.978Zm-105.308 69.343c12.145-26.228 35.257-44.87 63.012-50.827 8.775-1.883 28.131-1.92 36.927-.069 32.991 6.94 60.666 33.099 68.653 64.892 1.655 6.589 1.647 6.842-.289 9.447-2.268 3.05-7.739 4.08-10.461 1.971-.919-.712-3.077-5.546-4.797-10.741-6.981-21.091-20.024-35.923-39.805-45.264-11.626-5.491-20.034-7.069-34.728-6.521-20.8.777-34.632 6.848-49.5 21.725-14.821 14.832-21.043 28.988-21.791 49.583-.498 13.708 1.436 23.793 6.735 35.117 9.605 20.525 28.738 35.877 51.601 41.403 7.589 1.835 25.727 1.557 33.955-.52 9.228-2.329 21.618-8.376 28.722-14.018 11.511-9.142 22.811-26.207 25.866-39.059 1.609-6.773 4.356-9.681 8.781-9.297 2.38.206 4.067 1.151 5.504 3.084 2.039 2.742 2.045 2.894.332 9.5-1.99 7.672-8.149 21.091-12.75 27.778-8.742 12.707-21.475 23.44-36.027 30.37-34.626 16.489-75.487 9.095-102.588-18.565-17.76-18.127-26.103-40.175-25.067-66.238.575-14.442 2.331-22.124 7.715-33.751Z" clip-rule="evenodd"/>
</svg>
