<svg xmlns="http://www.w3.org/2000/svg" fill="none" viewBox="0 0 488 512">
  <g clip-path="url(#a)">
    <path fill="#000" fill-rule="evenodd" d="M73.831.956c-24.409 4.471-45.174 17.933-58.95 38.22-19.418 28.593-19.694 67.408-.688 96.522 15.456 23.676 40.507 38.317 68.413 39.984l10.105.603 1.58 9.607c3.9 23.727 14.148 45.631 30.2 64.554l5.742 6.769-6.505 6.642c-12.83 13.102-24.303 30.432-30.659 46.31-3.966 9.906-3.999 14.056-.146 17.91 5.586 5.586 14.431 2.562 17.138-5.86 2.044-6.355 9.92-21.414 14.74-28.18 5.106-7.168 12.578-15.675 17.776-20.238l3.4-2.986 3.761 2.964c14.74 11.614 37.317 21.542 61.262 26.937 11.268 2.539 12.489 2.603 60.5 3.189l49 .597 4.723 2.777c13.845 8.138 13.845 28.31 0 36.446-4.445 2.612-5.596 2.805-19.563 3.276-14.755.498-14.853.517-17.25 3.307-5.256 6.119-.729 16.694 7.147 16.694.911 0 1.456.562 1.21 1.25s-2.197 7.663-4.335 15.5c-2.139 7.837-4.123 14.225-4.41 14.194-.287-.031-2.025-3.206-3.862-7.056-8.38-17.56-29.575-30.841-49.274-30.876-5.755-.01-6.942.317-9.151 2.525-3.365 3.366-4.08 6.702-2.331 10.888 1.807 4.324 5.333 6.122 13.596 6.935 12.936 1.272 25.032 10.072 30.82 22.422 2.347 5.007 2.68 6.961 2.68 15.718 0 8.715-.339 10.722-2.635 15.62-1.45 3.091-4.314 7.479-6.367 9.75-3.636 4.025-3.894 4.13-10.164 4.13-3.612 0-7.642.625-9.189 1.425-6.655 3.442-6.655 13.708 0 17.15 2.077 1.074 7.065 1.425 20.256 1.425 20.028 0 25.272.851 32.71 5.31 5.43 3.256 12.082 10.945 13.849 16.007l.983 2.817-49.222-.398c-45.277-.367-49.942-.564-58.221-2.459-31.433-7.197-57.182-23.761-75.824-48.777-5.117-6.867-11.828-19.435-18.049-33.805-4.315-9.966-19.103-7.097-18.996 3.685.041 4.135 5.347 17.185 11.028 27.12 23.151 40.49 63.454 67.572 109.341 73.474 4.125.53 32.081.978 62.124.995 59.23.034 59.253.032 66.535-5.523 1.813-1.382 4.393-4.411 5.734-6.73 1.349-2.334 6.74-19.612 12.079-38.716 5.302-18.975 10.307-36.808 11.12-39.629 1.435-4.973 1.656-5.193 7.279-7.244 11.721-4.273 22.403-12.842 29.286-23.491 12.409-19.199 11.357-46.154-3.165-81.147-1.146-2.761.353-8.749 18.119-72.343l19.369-69.333 8.01-5.224c27.916-18.207 42.853-46.892 41.184-79.089-1.99-38.364-27.503-69.946-65.174-80.676-11.473-3.268-33.477-3.289-44.789-.044-21.911 6.287-39.936 19.397-51.718 37.616-2.349 3.632-4.449 6.604-4.665 6.604-.217 0-2.711-1.174-5.543-2.609-42.922-21.75-100.745-21.701-143.811.122-2.699 1.368-5.085 2.487-5.302 2.487-.216 0-2.275-2.909-4.575-6.465C150.339 22.354 132.124 8.968 111 2.987 102.617.613 81.886-.52 73.831.956Zm2.374 20.091c-35.502 6.367-61.051 41.987-55.215 76.98 4.837 29.002 26.238 51.095 54.785 56.557 4.07.779 9.536 1.416 12.145 1.416h4.744l1.602-9.75c.881-5.362 1.87-10.447 2.198-11.299.509-1.324-.332-1.491-5.766-1.145-13.146.838-25.384-3.883-35.002-13.502-19.92-19.92-17.701-51.866 4.79-68.977 11.33-8.619 26.947-11.516 40.265-7.471 12.76 3.875 24.901 14.364 29.248 25.269.741 1.856 1.489 3.558 1.662 3.781.174.223 2.684-1.812 5.578-4.523 2.894-2.71 6.782-6.1 8.641-7.533l3.38-2.604-2.544-4.267c-11.969-20.07-32.613-32.516-55.528-33.476-5.329-.223-12.071.022-14.983.544Zm312 0c-13.02 2.335-26.679 9.649-36.257 19.414C347.236 45.266 339 56.436 339 58.023c0 .311 2.137 2.201 4.75 4.2s6.301 5.242 8.196 7.206c1.896 1.964 3.718 3.571 4.049 3.571.332 0 1.166-1.555 1.853-3.457 2.227-6.159 9.606-15.013 16.158-19.388 16.711-11.159 37.909-10.695 53.508 1.172 6.726 5.118 12.608 12.814 15.615 20.433 3.25 8.236 3.249 24.245-.001 32.483-2.758 6.99-9.656 16.233-15.045 20.162l-3.985 2.905 4.201 2.67c4.317 2.743 10.701 9.338 10.701 11.055 0 5.125 16.085-11.638 21.295-22.193 5.291-10.719 7.091-18.548 7.091-30.842 0-19.502-5.676-33.306-19.36-47.084-9.447-9.512-15.691-13.483-27.338-17.388-8.839-2.963-23.535-4.086-32.483-2.481ZM226.81 49.073c-44.453 5.494-83.195 31.223-101.874 67.656-14.34 27.968-15.779 60.353-3.991 89.793 8.238 20.574 24.874 40.537 45.29 54.35 7.013 4.745 23.167 12.545 32.161 15.529 15.484 5.139 26.701 6.884 44.604 6.942 18.61.06 28.996-1.438 44.724-6.448 19.284-6.144 39.528-17.576 41.118-23.22.491-1.746 8.25-29.467 17.24-61.601 11.149-39.85 17.111-59.554 18.753-61.972 2.178-3.21 2.29-3.881 1.178-7.074-2.066-5.934-9.578-18.09-16.568-26.811-18.138-22.63-47.432-39.48-79.445-45.698-10.292-1.999-32.657-2.748-43.19-1.446ZM79.64 63.632C70.238 66.52 62 77.9 62 88c0 10.368 8.236 21.508 18.059 24.425 6.646 1.974 9.236 1.974 15.882 0C105.764 109.508 114 98.368 114 88s-8.236-21.508-18.059-24.425c-6.435-1.911-9.934-1.899-16.301.057Zm312 0C382.238 66.52 374 77.9 374 88c0 13.305 12.695 26 26 26s26-12.695 26-26c0-10.368-8.236-21.508-18.059-24.425-6.435-1.911-9.934-1.899-16.301.057Zm-217.445 74.857c-3.536 2.975-4.486 6.879-2.71 11.13 1.649 3.945 5.09 6.381 9.015 6.381 5.918 0 10.933-6.282 9.79-12.261-.736-3.851-5.655-7.739-9.79-7.739-2.107 0-4.442.922-6.305 2.489Zm127 0c-3.536 2.975-4.486 6.879-2.71 11.13 1.649 3.945 5.09 6.381 9.015 6.381 5.918 0 10.933-6.282 9.79-12.261-.736-3.851-5.655-7.739-9.79-7.739-2.107 0-4.442.922-6.305 2.489Zm81.043 1.761c-.554.688-10.462 35-22.017 76.25l-21.009 75 4.24 4.5c2.332 2.475 5.173 5.868 6.313 7.54 3.465 5.083 6.235 14.835 6.235 21.954v6.557l3.073-1.589c1.689-.873 6.227-4.597 10.083-8.275l7.01-6.687 22.441-80c12.343-44 22.501-81.305 22.574-82.899.077-1.702-.573-3.414-1.574-4.147-2.144-1.567-30.339-9.454-33.799-9.454-1.41 0-3.016.563-3.57 1.25ZM234 147.879c-9.959 3.263-17.737 10.198-22.247 19.834-2.714 5.801-3.102 7.816-3.537 18.371-.535 13.003.714 21.898 3.971 28.283 3.301 6.47 10.288 13.117 17.079 16.249 5.317 2.452 7.484 2.875 14.734 2.875 7.267 0 9.413-.421 14.791-2.901 7.831-3.61 15.155-11.321 18.373-19.343 2.056-5.129 2.306-7.415 2.32-21.247.016-15.329-.019-15.574-3.135-22.151-3.735-7.883-9.301-13.763-16.565-17.498-4.391-2.258-6.806-2.766-14.284-3.004-4.95-.158-10.125.082-11.5.532Zm2.241 21.116c-6.162 3.756-7.233 6.922-7.237 21.387-.004 11.22.259 13.307 2.034 16.179C233.202 210.064 240.062 214 244 214c3.938 0 10.798-3.936 12.962-7.439 1.775-2.872 2.038-4.959 2.034-16.179-.003-11.09-.28-13.335-1.991-16.141-4.241-6.956-13.94-9.407-20.764-5.246Zm149.667 165.636c-.775.944-4.667 4.311-8.649 7.484-7.091 5.647-16.837 10.916-26.7 14.434-2.718.969-6.857 3.528-9.198 5.686-5.543 5.109-7.74 10.853-7.169 18.744.701 9.693 5.373 14.441 16.001 16.261 5.597.959 7.536.86 13.212-.677 12.893-3.49 23.466-12.761 27.236-23.881 2.323-6.851 2.279-20.796-.095-30.682-2.091-8.707-2.721-9.707-4.638-7.369ZM86.75 357.08C84.582 358.343 82 363.191 82 366c0 3.306 2.606 7.499 5.472 8.805 10.338 4.711 19.567-7.92 11.605-15.882-2.231-2.231-3.829-2.916-6.75-2.893-2.105.017-4.615.489-5.577 1.05Zm217.405 59.959c-5.103 18.245-9.137 33.284-8.966 33.421.171.136 3.57 1.943 7.553 4.013 8.836 4.595 18.59 14.501 23.034 23.394l3.067 6.138 1.038-3.252c2.257-7.072 17.119-61.166 17.119-62.311 0-.671-1.687-1.525-3.75-1.899-5.714-1.036-13.546-4.912-17.932-8.875-4.701-4.247-9.303-12.335-10.801-18.984l-1.085-4.816-9.277 33.171Z" clip-rule="evenodd"/>
    <path fill="#F4ADA4" d="M304.155 417.039c-5.103 18.245-9.137 33.284-8.966 33.421.171.136 3.57 1.943 7.553 4.013 8.836 4.595 18.59 14.501 23.034 23.394l3.067 6.138 1.038-3.252c2.257-7.072 17.119-61.166 17.119-62.311 0-.671-1.687-1.525-3.75-1.899-5.714-1.036-13.546-4.912-17.932-8.875-4.701-4.247-9.303-12.335-10.801-18.984l-1.085-4.816-9.277 33.171Zm78.083-276.789c-.554.688-10.462 35-22.017 76.25l-21.009 75 4.24 4.5c2.332 2.475 5.173 5.868 6.313 7.54 3.465 5.083 6.235 14.835 6.235 21.954v6.557l3.073-1.589c1.689-.873 6.227-4.597 10.083-8.275l7.01-6.687 22.441-80c12.343-44 22.501-81.305 22.574-82.899.077-1.702-.573-3.414-1.574-4.147-2.144-1.567-30.339-9.454-33.799-9.454-1.41 0-3.016.563-3.57 1.25Z"/>
  </g>
  <defs>
    <clipPath id="a">
      <path fill="#fff" d="M0 0h488v512H0z"/>
    </clipPath>
  </defs>
</svg>
