<svg xmlns="http://www.w3.org/2000/svg" fill="none" viewBox="0 0 649 640">
  <g clip-path="url(#a)">
    <path fill="#2F2E41" d="M470.287 114.549c23.278 0 42.148-18.87 42.148-42.148 0-23.277-18.87-42.147-42.148-42.147-23.277 0-42.147 18.87-42.147 42.147 0 23.278 18.87 42.148 42.147 42.148Z"/>
    <path fill="#FFB6B6" d="m451.038 604.544-16.259-3.389 5.336-64.325 23.997 5.002-13.074 62.712Z"/>
    <path fill="#2F2E41" d="m452.78 596.19-17.2-4.66-2.75-.75-2.29 11.01-10.3 4.34-12.59 5.3-.02.01-4.77 2.01-.27.12a6.5 6.5 0 0 0-.46.22h-.01c-.1.05-.2.11-.3.16a7.223 7.223 0 0 0-2.04 1.77 7.04 7.04 0 0 0 .943 9.643 7.032 7.032 0 0 0 3.157 1.567l3.12.65 4.5.94 1.18.24 14.58 3.04v.01l7.22 1.5 7.54-9.8-.21 11.32 11.16 2.33.38.08.01-.08 4.86-39.49-5.44-1.48Z"/>
    <path fill="#FFB6B6" d="m535.928 587.822-14.252 8.528-39.675-50.912 21.033-12.586 32.894 54.97Z"/>
    <path fill="#2F2E41" d="m559.79 610.29-23.24-32.39-5 2.6-15.81 8.23-2.53 1.31 5.78 9.65-12.57 27.61a7.027 7.027 0 0 0 5.39 9.86c.683.1 1.377.1 2.06 0a6.872 6.872 0 0 0 2.56-.92l26.82-16.05-1.09-12.31 7.52 8.47 10.11-6.06Z"/>
    <path fill="#FFB8B8" d="m498.909 295.182-78.275-3.01-4.515-81.285h90.316l-7.526 84.295Z"/>
    <path fill="#FFB6B6" d="M548.593 350.965a12.542 12.542 0 0 1 .74-19.212l-14.211-42.229 22.385 5.916 10.064 39.194a12.609 12.609 0 0 1-10.657 19.644 12.613 12.613 0 0 1-8.321-3.313Z"/>
    <path fill="#FFB8B8" d="M463.85 116.375c16.462 0 29.808-13.346 29.808-29.809 0-16.462-13.346-29.808-29.808-29.808-16.463 0-29.809 13.346-29.809 29.808 0 16.463 13.346 29.809 29.809 29.809Z"/>
    <path fill="#2F2E41" d="m494.25 66-30.239-23.642L439.25 48l-9.95 34.263 14.812-.74 4.138-12.532v12.325l6.836-.341 3.966-19.951 2.48 21.239 24.298-.644 8.42-15.62Zm-75.121 208.108s-26.078 45.327-.901 114.1l69.542 177.325 33.246-19.654-33.889-76.342 27.566-93.445a162.423 162.423 0 0 0 5.751-65.387c-1.987-16.432-9.886-24.099-20.03-39.607-33.875 21.849-79.822 13.178-81.285 3.01Z"/>
    <path fill="#2F2E41" d="m453.788 456.036-23.211 107.821 33.577 6.33 19.121-90.639-29.487-23.512Z"/>
    <path fill="#E4E4E4" d="m484.835 124-38.539.514-12.543 15.927-20.194 4.762-5.248 30.328c-2.624 15.163.162 24.765 7.871 38.082l.923 26.198-1.02 1.854a4.245 4.245 0 0 0 1.28 5.522 8.678 8.678 0 0 0-.239 5.709l.498 1.644s1.435 11.484 82.811-.594a8.022 8.022 0 0 0 6.78-6.893 5.991 5.991 0 0 0 1.11-6.903l-.166-.332.836-.984a6.448 6.448 0 0 0 .326-7.923l11.695-83.662-24.159-7.524L484.835 124Z"/>
    <path fill="#E4E4E4" d="m511.368 155.257 9.648-8.008s8.577 2.536 14.568 19.431c5.99 16.895 26.546 145.06 26.546 145.06l-24.084-12.042-34.151-94.165 7.473-50.276Z"/>
    <path fill="#FFB6B6" d="M297.102 291.707a12.539 12.539 0 0 0 14.381-12.759l41.66-15.804-18.774-13.551-36.682 17.084a12.605 12.605 0 0 0-11.41 12.255 12.609 12.609 0 0 0 10.825 12.775Z"/>
    <path fill="#E4E4E4" d="m424.746 154.526-6.54-10.697s-8.937-.374-20.068 13.677c-5.707 7.203-42.689 68.989-42.689 68.989L321.25 255l28 10 33-14 37-61 5.496-35.474Z"/>
    <path fill="#2F2E41" d="M566.923 79.018c-8.778-9.952-14.324-22.26-20.062-34.224-5.738-11.965-11.995-24.054-21.77-33.028-9.775-8.975-23.86-14.357-36.558-10.503-12.698 3.854-21.85 18.992-16.466 31.12l.449 1.946c30.43 1.257 59.693 18.908 74.999 45.238 7.225 12.428 11.692 26.813 21.91 36.924a43.062 43.062 0 0 0 72.062-20.138c-25.17 10.379-56.554 3.083-74.564-17.335Z"/>
    <path fill="#F0F0F0" d="M327 391.14c0 7.022-.448 14.036-1.34 21H2.34a165.362 165.362 0 0 1-1.34-21 162.999 162.999 0 1 1 326 0Z"/>
    <path fill="#3F3D56" d="M164 555.14c-82.253 0-152.178-61.422-162.652-142.872A167.153 167.153 0 0 1 0 391.14a164.003 164.003 0 0 1 101.208-151.643 164.004 164.004 0 0 1 178.807 35.587A164.002 164.002 0 0 1 328 391.14a167.105 167.105 0 0 1-1.348 21.127C316.178 493.718 246.253 555.14 164 555.14Zm0-326c-75.566 0-142.12 53.501-158.253 127.214A162.75 162.75 0 0 0 2 391.14c.003 6.979.447 13.951 1.332 20.873C13.678 492.468 82.75 553.14 164 553.14s150.322-60.672 160.668-141.127A164.963 164.963 0 0 0 326 391.14a162.749 162.749 0 0 0-3.747-34.786C306.121 282.641 239.566 229.14 164 229.14Z"/>
    <path fill="#CACACA" d="M266.929 442.799H61.071a3.774 3.774 0 0 0-2.667 6.44 3.773 3.773 0 0 0 2.667 1.104h205.858c1-.001 1.957-.399 2.663-1.107a3.767 3.767 0 0 0 0-5.33 3.773 3.773 0 0 0-2.663-1.107Z"/>
    <path fill="#888" d="M196.516 442.799v7.544H61.071a3.77 3.77 0 0 1-2.663-6.437 3.775 3.775 0 0 1 2.663-1.107h135.445Z"/>
    <path fill="#A6A6A6" d="M196.516 454.115a7.544 7.544 0 1 0 0-15.088 7.544 7.544 0 0 0 0 15.088Z"/>
    <path fill="#585858" d="M164 517.864a18.868 18.868 0 0 1-17.426-11.644 18.865 18.865 0 0 1 4.089-20.555 18.864 18.864 0 0 1 20.555-4.089 18.863 18.863 0 0 1 11.644 17.426A18.884 18.884 0 0 1 164 517.864Zm0-36.273a17.406 17.406 0 0 0-16.085 10.748 17.409 17.409 0 0 0 22.748 22.748 17.413 17.413 0 0 0 10.748-16.085A17.428 17.428 0 0 0 164 481.591Z"/>
    <path fill="#585858" d="M161.509 509.158a.726.726 0 0 1-.725-.725v-18.862a.713.713 0 0 1 .212-.513.722.722 0 0 1 .791-.157.718.718 0 0 1 .392.393.714.714 0 0 1 .056.277v18.862a.727.727 0 0 1-.726.725Zm4.982 0a.726.726 0 0 1-.725-.725v-18.862a.713.713 0 0 1 .212-.513.733.733 0 0 1 .791-.157.718.718 0 0 1 .392.393.714.714 0 0 1 .056.277v18.862a.727.727 0 0 1-.726.725Z"/>
    <path fill="#3F3D56" d="M77.61 499.002a18.864 18.864 0 0 1 22.541-18.499 18.864 18.864 0 0 1 13.746 25.717 18.863 18.863 0 0 1-17.426 11.644 18.885 18.885 0 0 1-18.862-18.862Zm1.45 0a17.41 17.41 0 1 0 17.41-17.411 17.435 17.435 0 0 0-17.41 17.411Z"/>
    <path fill="#3F3D56" d="M104.618 505.352a.6.6 0 0 0 .583-.447.605.605 0 0 0-.281-.678l-9.05-5.225 9.05-5.225a.602.602 0 0 0 .219-.823.606.606 0 0 0-.822-.222l-9.955 5.747a.61.61 0 0 0-.301.523.606.606 0 0 0 .301.523l9.955 5.747c.091.053.195.08.301.08Zm-13.348 2.096a.604.604 0 0 0 .604-.603v-15.686a.598.598 0 0 0-.372-.559.595.595 0 0 0-.659.131.598.598 0 0 0-.176.428v15.686a.601.601 0 0 0 .604.603Zm140.259 10.416a18.868 18.868 0 0 1-17.426-11.644 18.865 18.865 0 0 1 4.089-20.555 18.863 18.863 0 0 1 32.199 13.337 18.884 18.884 0 0 1-18.862 18.862Zm0-36.273a17.408 17.408 0 0 0-16.085 10.748 17.409 17.409 0 0 0 22.748 22.748 17.408 17.408 0 0 0 10.748-16.085 17.428 17.428 0 0 0-17.411-17.411Z"/>
    <path fill="#3F3D56" d="M223.382 505.352a.602.602 0 0 1-.302-1.125l9.05-5.225-9.05-5.225a.602.602 0 0 1-.219-.823.605.605 0 0 1 .823-.222l9.954 5.747c.091.053.168.13.221.221a.614.614 0 0 1 0 .604.616.616 0 0 1-.221.221l-9.954 5.747a.604.604 0 0 1-.302.08Zm13.348 2.096a.605.605 0 0 1-.604-.603v-15.686c0-.079.015-.158.046-.231a.593.593 0 0 1 .326-.328.597.597 0 0 1 .659.131.596.596 0 0 1 .176.428v15.686a.603.603 0 0 1-.603.603Z"/>
    <path fill="#fff" d="M201.441 375.64h-48.882a12.07 12.07 0 0 1-12.059-12.059v-48.882a12.074 12.074 0 0 1 12.059-12.059h48.882a12.07 12.07 0 0 1 12.059 12.059v48.882a12.07 12.07 0 0 1-12.059 12.059Z"/>
    <path fill="#fff" d="M182.441 361.14h-48.882A12.57 12.57 0 0 1 121 348.581v-48.882a12.572 12.572 0 0 1 12.559-12.559h48.882A12.575 12.575 0 0 1 195 299.699v48.882a12.573 12.573 0 0 1-12.559 12.559Zm-48.882-72A10.575 10.575 0 0 0 123 299.699v48.882a10.57 10.57 0 0 0 10.559 10.559h48.882A10.568 10.568 0 0 0 193 348.581v-48.882a10.57 10.57 0 0 0-10.559-10.559h-48.882Z"/>
  </g>
  <defs>
    <clipPath id="a">
      <path fill="#fff" d="M0 0h649v640H0z"/>
    </clipPath>
  </defs>
</svg>
