<svg xmlns="http://www.w3.org/2000/svg" fill="none" viewBox="0 0 223 190">
  <path fill="#FEC301" fill-rule="evenodd" d="M120.067 17.967C120.067 8.5 127.734.833 137.2.833h68.533c9.466 0 17.134 7.667 17.134 17.134v137.066c0 9.466-7.668 17.134-17.134 17.134H137.2c-9.466 0-17.133 7.667-17.133 17.133V17.967Z" clip-rule="evenodd"/>
  <path fill="#AA151B" d="M17.267.833C7.8.833.133 8.5.133 17.967v137.066c0 9.466 7.667 17.134 17.134 17.134H85.8c9.466 0 17.133 7.667 17.133 17.133V17.967C102.933 8.5 95.266.833 85.8.833H17.267Z"/>
</svg>
