<svg version="1.0" xmlns="http://www.w3.org/2000/svg" viewBox="0 0 512 512"><path d="M83.6 1.6C50.8 7.5 23.8 33 14.7 66.5c-2.9 10.7-3 31.6-.3 41.9 10.3 38.7 41.7 64.8 80.9 67.3 5.3.3 9.7.9 9.7 1.3s.7 4.7 1.5 9.6c4 23.3 14.5 45.5 29.9 63.7l5.8 6.7-8.1 8.6c-9.3 10-18.2 22.6-23.9 33.9-10 19.8-10.6 26.2-3 30.1 3.8 2 8.7 1.2 11.5-1.9 1.1-1.2 3.5-5.9 5.3-10.5 5.6-14.3 20.6-35.7 30.1-43.3l3.7-2.9 7.9 5.4c15.5 10.7 38 20.3 56.3 24 14.7 3 25.9 3.6 66.4 3.6 29.4 0 42 .3 45 1.2 2.3.7 5.9 3 8.2 5.3 10.2 10.2 7.5 26.9-5.5 33.7-5 2.6-6.1 2.8-17.8 2.8-13.6 0-17.1 1-19.1 5.5-2 4.4-1.4 7.5 2.2 11.1 1.9 1.9 4.4 3.4 5.6 3.4 1.6 0 2.1.5 1.7 1.7-.2 1-2.1 8-4.2 15.5-2.1 7.6-4.1 13.8-4.4 13.7-.3 0-1.8-2.6-3.3-5.7-8.8-18.4-30.1-32.2-49.9-32.2-4.7 0-6.3.5-8.8 2.6-2.5 2.1-3.1 3.3-3.1 6.6 0 7.5 2.5 9.5 13.4 10.9 13.8 1.7 25.6 10.2 31.4 22.7 2.4 5 2.7 6.9 2.7 15.7 0 8.7-.3 10.7-2.6 15.6-1.5 3.1-4.3 7.5-6.4 9.8-3.6 4-3.9 4.1-10.2 4.1-3.6 0-7.6.6-9.2 1.4-2.8 1.5-5.1 5.3-5.1 8.7 0 2.8 2.6 7.5 4.7 8.5 1 .5 11.3 1.1 22.8 1.4 20 .5 21.3.6 26.6 3.1 7.5 3.5 13.2 8.9 16.4 15.2l2.6 5.2-43.8.3c-45.7.3-56.1-.3-70-3.9-37.1-9.7-68.7-36.7-83.5-71.3-5.5-12.9-6.2-13.9-10.2-15.5-3.1-1.2-3.9-1.1-7.3.5-4.6 2.3-6.5 6.9-5.1 12.3 1.8 6.6 11.6 26 18 35.3 8 11.8 24.7 28.5 36.3 36.4 16.6 11.3 34.8 19.2 54.3 23.6 9.2 2 12.5 2.2 68 2.5 66.8.5 65.8.6 73.5-7.2 2.5-2.5 5.2-6.4 6.1-8.7.8-2.4 5.4-18.2 10.1-35.3 13.6-49 11.7-43.9 17.3-46 13.8-5.1 27.4-16.9 33.1-28.7 9.3-19.7 7.7-41.2-5.4-74.9l-1.9-4.7 19.5-69.5 19.4-69.5 7.4-4.3c10-5.9 23.2-19.2 29.3-29.4C508 98.3 502.6 54.5 474 26c-34.2-34.3-89.2-34.5-123.6-.5-3.9 3.8-9.2 10.3-11.8 14.2-2.6 4-4.8 7.3-5 7.3-.2 0-3.9-1.6-8.2-3.6-43.7-20.3-94.6-20.3-138.3-.3-4.6 2.2-8.5 3.9-8.7 3.9-.2 0-2.4-3.3-5-7.3-18.8-29.2-54.7-44.4-89.8-38.1zm36.9 21.8c4.4 1.4 10.9 4.2 14.4 6.3 7.9 4.7 18.5 15.1 23.1 22.8l3.4 5.8-3.9 3.1c-2.2 1.7-6.1 5.1-8.8 7.5-2.6 2.4-4.8 4.2-5 4-.1-.2-1.5-2.9-3-6-3.3-6.7-12-15.7-18.6-19.3-10.1-5.4-21.3-6.8-33-4.1-8.6 2.1-15.6 6.2-22.2 13.2-13.2 13.8-16.4 33.8-8.2 51.1 3.5 7.4 14 18 21.3 21.4 7.2 3.4 16.7 5.2 23.6 4.5 4.8-.5 5.4-.4 5 1.1-.6 2-3.6 19-3.6 20.5 0 1.8-17 0-25.5-2.7-10.7-3.4-19.2-8.6-27.3-16.7-8.1-8.2-13.4-16.8-16.9-27.4-2.3-6.9-2.7-9.7-2.7-20.5s.4-13.6 2.7-20.5c2.8-8.5 7.6-17.3 12.8-23.4 9-10.5 24-19.6 37.4-22.5 10.1-2.3 24.7-1.5 35 1.8zm312 0c10.7 3.4 19.4 8.7 27.4 16.7 7.9 7.9 13.2 16.6 16.8 27.4 2.3 6.9 2.7 9.6 2.7 20.5s-.4 13.6-2.7 20.5c-3.6 10.9-8.9 19.5-17.2 27.7l-6.9 7-1.6-2.3c-3.1-4.9-7.4-9.1-11.1-11l-3.8-1.9 7.3-7.3c8.4-8.3 12-14.9 13.8-25.6 2.4-13.8-2.1-27.9-12.1-38.4-6.6-7-13.6-11.1-22.2-13.2-11.7-2.7-22.9-1.3-33 4.1-6.6 3.6-15.3 12.6-18.6 19.3-1.5 3.1-2.9 5.8-3 6-.2.2-2.4-1.6-5-4-2.7-2.4-6.6-5.9-8.7-7.6l-3.9-3.2 3.4-5.7c9.3-15.4 25.2-26.5 44.4-31 9-2.1 24.1-1.2 34 2zM282.8 50.5c26.8 5.2 52 18.3 70.2 36.4 10.1 10.1 16.8 19.3 22.7 30.9l4.2 8.4-2.3 3.2c-2.9 3.7-3.6 6.3-20.6 67.1-7.2 25.8-14 50-15.1 53.7l-1.9 6.6-8.2 5.3c-76 48.7-183.2 11.5-204.1-71-3.1-12.4-3.1-37.8 0-50.2C140 92.4 182.9 56.7 238 49c9.3-1.3 35.1-.4 44.8 1.5zM111.5 64.8c4.7 2.4 9.5 7.3 12.1 12.2 2.6 4.9 2.6 17.1 0 22-2.6 4.9-7.4 9.8-12.1 12.3-3 1.6-5.8 2.2-11.5 2.2-6.4 0-8.2-.4-12.2-2.7-20.3-12-17.3-40.6 5.2-47.9 4.1-1.4 14.2-.3 18.5 1.9zm312 0c16 8.2 19.2 28.6 6.5 41.2-12.8 12.9-33 9.4-41.6-7-1.3-2.5-1.9-5.6-1.9-11 0-8.3 1.5-12.1 6.9-17.8 3.1-3.4 7-5.8 11.6-7.3 4.1-1.4 14.2-.3 18.5 1.9zm-.2 80.4c5.5 1.5 8.3 2.8 9.4 4.4 1.3 2.1-.4 8.6-21.1 82.8-12.4 44.3-22.6 80.8-22.6 81.1 0 2.4-18.1 18.5-20.7 18.5-.4 0-.6-2.1-.4-4.7.8-10.3-3.8-22.2-11.9-30.7l-4.8-5.1 20.7-74.1c11.4-40.7 21-74.8 21.4-75.7 1.2-3.3 4.7-3.5 13.7-1 4.7 1.3 12 3.3 16.3 4.5zM402.6 341c2.6 9.8 2.4 25.8-.5 33.2-4.6 11.8-18.4 22.2-31.5 23.5-10.3 1.1-19.6-2.9-23.1-9.8-2.4-4.6-1.9-13.7 1-19.6 3.3-6.5 7.2-9.5 17.5-13.3 10.2-3.7 20.7-10.2 28-17.2 3.1-2.9 5.8-4.9 6.2-4.3.3.5 1.4 3.9 2.4 7.5zm-71.3 59.3c4.5 7.6 14.7 14.5 24 16.2 2.4.5 3.7 1.3 3.7 2.3 0 1.2-16 59.5-17.6 64.2-.3.9-1.7-1.1-3.7-5-4.3-8.9-15-19.6-23.9-24-3.8-1.8-6.8-3.6-6.8-4 0-.3 4.1-15.1 9-32.8 5-17.7 9-32.5 9.1-32.9 0-.4.8 1.9 1.8 5.3s2.9 8.2 4.4 10.7z"/><path d="M185.9 138.9c-3.8 3.9-4 9.7-.5 13.8 2 2.3 3.2 2.8 7.1 2.8 3.9 0 5.1-.5 7.1-2.8 5.5-6.4 1.1-16.7-7.1-16.7-2.7 0-4.4.8-6.6 2.9zM312.9 138.9c-3.8 3.9-4 9.7-.5 13.8 2 2.3 3.2 2.8 7.1 2.8 3.9 0 5.1-.5 7.1-2.8 5.5-6.4 1.1-16.7-7.1-16.7-2.7 0-4.4.8-6.6 2.9zM242.6 149.4c-12.1 5.1-19.5 15-21.7 28.8-1.6 9.9-.5 26.1 2.1 33.2 2.9 7.7 9.6 14.8 17.8 18.8 5.9 3 7.6 3.3 15.2 3.3s9.3-.3 15.2-3.3c8.1-4 14.9-11.1 17.7-18.8 4.4-11.5 3.7-35.4-1.3-45.2-3.3-6.5-10-13-16.6-16.1-8.1-3.8-20.3-4.1-28.4-.7zm21.4 19.9c6.3 4.1 7.5 7.7 7.5 21.2 0 10.3-.3 12.5-2.1 15.5-2.5 4.3-8.7 8-13.4 8-4.7 0-10.9-3.7-13.4-8-1.8-3-2.1-5.2-2.1-15.5s.3-12.5 2.1-15.5c3-5.1 7.8-8 13.4-8 3.2 0 5.8.7 8 2.3zM99.1 357.4c-5.9 3.3-6.7 10.2-1.7 15.2s11.5 4.3 14.9-1.6c5.2-8.8-4.2-18.6-13.2-13.6z"/></svg>