<svg xmlns="http://www.w3.org/2000/svg" fill="none" viewBox="0 0 365 386">
  <path fill="#fff" d="M347.915 38.907H118.381c-6.806 0-12.34 5.535-12.34 12.34v84.32c0 6.806 5.534 12.34 12.34 12.34h229.534c6.806 0 12.34-5.534 12.34-12.34v-84.32c0-6.806-5.534-12.34-12.34-12.34Z"/>
  <path fill="#3F3D56" d="M347.915 38.907H118.381c-6.806 0-12.34 5.535-12.34 12.34v84.32c0 6.806 5.534 12.34 12.34 12.34h229.534c6.806 0 12.34-5.534 12.34-12.34v-84.32c0-6.806-5.534-12.34-12.34-12.34Zm11.042 96.66c0 6.092-4.95 11.043-11.042 11.043H118.381c-6.092 0-11.043-4.951-11.043-11.043v-84.32c0-6.092 4.951-11.042 11.043-11.042h229.534c6.092 0 11.042 4.95 11.042 11.043v84.319Z"/>
  <path fill="#E4E4E4" d="M129.128 77.336h204a3.5 3.5 0 1 1 0 7h-204a3.5 3.5 0 1 1 0-7Zm0 23h74a3.5 3.5 0 1 1 0 7h-74a3.5 3.5 0 1 1 0-7Zm108.5 17c7.732 0 14-6.268 14-14s-6.268-14-14-14-14 6.268-14 14 6.268 14 14 14Z"/>
  <path fill="#fff" d="M244.91 95.139c-.667-.39-1.686-.188-2.052.538l-4.992 9.89c-1.343-2.103-3.06-3.94-5.052-5.479-.642-.495-1.681-.097-2.052.539-.454.774-.106 1.555.538 2.052 2.323 1.794 4.114 4.207 5.32 6.869.459 1.012 2.112.948 2.591 0l6.237-12.357c.365-.723.191-1.626-.538-2.052Z"/>
  <path fill="#2F2E41" d="M60.517 68.07c.888-4.095 1.149-1.078 3.081-4.793-1.326 4.801 1.12 3.229 4.371 6.994 22.844 3.581 24.283-4.242 32.737-4.003h.043c1.86-.03 2.816-2.258 1.694-3.742-2.769-3.665-5.821-9.321-2.933-12.882 5.118-6.308.608-19.243-1.598-16.447 0-10.787-13.284-17.86-18.437-16.108-9.521 3.239-18.34 7.606-19.407 17.38a65.037 65.037 0 0 1-.657 4.553c-.556 3.068-2.85 3.882-2.06 6.895l2.467 2.51c1.158 4.42.793 9.062-.794 13.348-.877 2.369-.998 4.4 1.493 6.296Z"/>
  <path fill="#FFB8B8" d="M84.298 53.596c7.908 0 14.319-6.41 14.319-14.318 0-7.908-6.41-14.319-14.319-14.319-7.908 0-14.318 6.41-14.318 14.319 0 7.908 6.41 14.318 14.318 14.318Z"/>
  <path fill="#A0616A" d="m61.993 365.697 7.374.174 4.11-33.128-10.882-.257-.602 33.211Z"/>
  <path fill="#2F2E41" d="M87.292 381.081c0 1.246-.884 2.256-1.975 2.256H70.681s-1.44-5.79-7.313-8.282l-.405 8.282h-7.55l.914-13.317s-2.02-7.124 2.175-10.766c4.195-3.641.797-3.134.797-3.134l1.65-8.242 11.41 1.342.084 12.937 5.537 12.842 8.121 4.012c.723.357 1.19 1.17 1.19 2.07Z"/>
  <path fill="#A0616A" d="m70.103 335.642 5.857 4.483 22.831-24.353-8.643-6.617-20.045 26.487Z"/>
  <path fill="#2F2E41" d="M81.489 362.974c-.734 1.006-2.043 1.302-2.924.66l-11.83-8.62s2.247-5.528-1.032-11l-5.205 6.455-6.102-4.447 8.581-10.223s2.564-6.947 8.099-7.42c5.534-.473 2.49-2.064 2.49-2.064l6.187-5.69 8.431 7.804-7.551 10.506-3.088 13.639 4.2 8.025c.375.714.274 1.648-.256 2.375Z"/>
  <path fill="#2F2E41" d="M49.003 196.309c.444 1.823-.374 10.306.083 13.225 1.165 7.422 11.802 47.887 9.967 59.422-6.723 42.266 2.575 69.38 2.575 69.38h15l8-128 7.808 10.293 15.278 45.631-27.026 48.592L94.8 326.506l42.134-66.991-29.941-112.064-1.809-6.766-40.453-1.129 2.251 3.373-5.12 5.059s-.007.014-.034.041c-.79 1.102-18.32 25.765-12.825 48.28Z"/>
  <path fill="#FFB8B8" d="M61.828 148.029c4.685 1.673 36.346-.054 45.165-.578l-1.809-6.766-40.453-1.129 2.251 3.373-5.12 5.059s-.007.014-.034.041Z"/>
  <path fill="#E4E4E4" d="m114.189 93.843-1.457 7.732-.354 1.854-7.75 15.908 1.019 23.32c.652 2.729-26.867-3.464-41.163 2.934l-11.128-53.22 11.284-24.53 8.83-4.905 1.472-5.887h18.706c.996 4.666-.084 6.964-2.02 8.288l4.686 12.496 17.875 16.01Z"/>
  <path fill="#FFB8B8" d="M128.82 48.239c-.231 2.002-.896 3.786-1.814 5.13l-1.001 19.214-9.128-.744 1.998-19.41c-.587-1.519-.827-3.407-.596-5.41.529-4.573 3.318-8.008 6.229-7.672 2.91.337 4.841 4.318 4.312 8.892Z"/>
  <path fill="#E4E4E4" d="m92.437 68.43 1.191 2.906s-17.4-1.743-17.028 7.342c.317 7.752 33.069 38.472 34.634 39.189 4.635 2.124 10.022-.735 10.861-5.764 7.375-19.027 8.903-36.181 5.533-51.767h-10l-3.256 12.295-.183 9.353-5.273 11.248-17.288-21.896.81-2.906Z"/>
  <path fill="#FFB8B8" d="M34.464 175.224c.643-1.959.79-3.901.514-5.544l7.304-18.275-8.798-3.221-6.462 18.885c-1.196 1.16-2.228 2.811-2.871 4.77-1.469 4.476-.35 8.861 2.497 9.796 2.848.935 6.348-1.936 7.816-6.411Z"/>
  <path fill="#E4E4E4" d="M76.594 68.44s-10.803-4.096-16.935.909c-2.53 2.064-13.714 16.287-15.437 35.436-.135 1.501-1.157 2.792-1.733 4.195-3.552 8.656-9.667 12.643-12.267 20.046-1.017 2.893.847 10.375.205 12.871-3.362 13.069-2.149 20.52-2.149 20.52l9.079 3.023 4.925-3.481 8.088-29.537L76.594 68.44Z"/>
  <path fill="#2F2E41" d="M88.18 22.337h-2.915c-8.528.009-23.105 12.071-17.465 20.532-4.816 12.847-4.991 19.531-2.947 23.03.753 1.287 2.247 1.874 3.735 1.77a5.83 5.83 0 0 1 .6-.012c1.44.048 3.374 6.824 4.716 7.345l3.562-1.082 5.842-5.838-2.964-8.904-5.736-4.488.781-10.394c-3.84-8.824.338-9.256 2.688-12.102l.238 9.131 3.367-3.248c2.742.07 5.946 1.26 8.077-1.213 3.87-4.527 7.881.939 12.452 2.043l1.417-1.122c.049-2.546-.328-5.004-1.059-7.205-.344-1.037-1.223-1.89-1.26-2.92-.139-3.866-7.445-7.615-13.13-5.323Z"/>
</svg>
