<svg xmlns="http://www.w3.org/2000/svg" fill="none" viewBox="0 0 385 498">
  <path fill="#F2F2F2" d="M18 139.849V18.301L7 15.849v135L90 150l-.28-10.884-71.72.733Z"/>
  <path fill="#3F3D56" d="M100 161H0V0h100v161Zm-98-2h96V2H2v157Z"/>
  <path fill="#3F3D56" d="M25.197 10H9v2h16.197v-2Zm0 5H9v2h16.197v-2Zm0 5H9v2h16.197v-2Zm61 86H17v2h69.197v-2Zm0 11H17v2h69.197v-2Zm0 11H17v2h69.197v-2ZM85 23a7 7 0 1 1 7-7 7.008 7.008 0 0 1-7 7Zm0-12a5 5 0 1 0 0 10 5 5 0 0 0 0-10Zm2 72H16V37h71v46Zm-69-2h67V39H18v42Z"/>
  <path fill="#3F3D56" d="m17.54 37.157-1.075 1.687 69 44 1.075-1.686-69-44Z"/>
  <path fill="#3F3D56" d="m85.463 37.157-69.001 44 1.075 1.686 69-44-1.075-1.686Z"/>
  <path fill="#E4E4E4" d="M34.76 191.931h41.304a144.46 144.46 0 0 0 0-49.247H34.761a88.612 88.612 0 0 1 0 49.247Z"/>
  <path fill="#FFB8B8" d="M288.458 109.888c14.182-7.753 19.395-25.535 11.642-39.717-7.753-14.182-25.535-19.395-39.717-11.642-14.182 7.753-19.394 25.535-11.642 39.717 7.753 14.182 25.535 19.394 39.717 11.642Z"/>
  <path fill="#2F2E41" d="M320.302 73.761c14.299 0 25.89-11.592 25.89-25.89 0-14.3-11.591-25.89-25.89-25.89-14.299 0-25.89 11.59-25.89 25.89 0 14.298 11.591 25.89 25.89 25.89Z"/>
  <path fill="#2F2E41" d="M342.634 69.31a25.896 25.896 0 0 1-33.823-3.03 25.891 25.891 0 0 1-6.159-10.565 25.9 25.9 0 0 0 10.661 17.853 25.9 25.9 0 0 0 20.355 4.254 25.893 25.893 0 0 0 19.489-32.725 25.888 25.888 0 0 1-10.523 24.212Z"/>
  <path fill="#2F2E41" d="M240.459 69.338c4.52-8.092 6.249-11.472 12.077-16.392 5.153-4.352 11.492-5.63 16.605-1.507a30.621 30.621 0 0 1 42.712 26.318 30.617 30.617 0 0 1-20.09 30.562 30.623 30.623 0 0 1-35.038-10.486 30.627 30.627 0 0 1-6.059-18.288c.005-1.157.075-2.313.209-3.462-4.444-.624-5.972-6.12-10.416-6.745Z"/>
  <path fill="#FFB8B8" d="m203.548 483.707-13.385-3.888 8.626-53.481 19.756 5.739-14.997 51.63Z"/>
  <path fill="#2F2E41" d="m179.754 472.649 27.774 8.067-4.722 16.254-42.069-12.22.569-1.958a14.891 14.891 0 0 1 7.123-8.892 14.874 14.874 0 0 1 11.325-1.251Z"/>
  <path fill="#FFB8B8" d="m341.88 484.027-13.939-.001-6.631-53.765 20.572.001-.002 53.765Z"/>
  <path fill="#2F2E41" d="M315.945 480.043h28.922v16.926h-43.809v-2.039a14.89 14.89 0 0 1 14.887-14.887Z"/>
  <path fill="#FFB8B8" d="M309.083 296.868a11.433 11.433 0 0 1 3.208-17.236l-7.238-39.979 19.415 8.297 3.896 36.694a11.496 11.496 0 0 1-19.281 12.224Z"/>
  <path fill="#E4E4E4" d="m319.491 201.146-22.777-69.148c-.475-.793-6.145-9.717-18.491-5.921a10.335 10.335 0 0 0-6.377 5.201c-3.614 6.928-.243 17.631-.228 17.688l28.043 62.84.029.065 8.851 64.536 19.116-3.881-8.166-71.38Z"/>
  <path fill="#2F2E41" d="m168.096 456.955 34.284-105.128 39.75-90.859-.572-44.067 47.171-11 5.494 18.468c31.769 20.963 21.303 61.288 20.557 63.991l47.869 176.66-52.195 5.799-35.035-167.264-32.312 67.965-22.846 101.665-52.165-16.23Z"/>
  <path fill="#E4E4E4" d="M238.157 179.909c-9.379-17.978-2.598-24.824 7.656-35.178 4.19-4.09 8.123-8.437 11.773-13.015 15.997-20.566 34.563-10.466 34.749-10.361l.104.059 4.588 6.88c15.116 15.214-7.808 57.018-9.548 60.131l1.149 29.893-48.749 4.642-1.722-43.051Z"/>
  <path fill="#FFB8B8" d="M256.73 295.312a11.44 11.44 0 0 1 .029-9.674 11.445 11.445 0 0 1 7.436-6.189l3.113-40.51 16.683 12.94-5.514 36.485a11.496 11.496 0 0 1-21.747 6.948Z"/>
  <path fill="#E4E4E4" d="m260.263 276.32 7.875-65.593-11.225-67.875c-.026-.476-.584-11.732 4.946-17.833a11.288 11.288 0 0 1 8.186-3.747c14.025-.615 17.379 11.07 17.411 11.188l4.568 72.918-10.305 72.134-21.456-1.192Z"/>
</svg>
