<svg xmlns="http://www.w3.org/2000/svg" fill="none" viewBox="0 0 512 512">
  <path fill="#151515" d="M238.9 61.3c-56.2 41.3-85.4 62.4-121.9 87.9L84.5 172H46.2c-39.9 0-41 .1-44.4 4.4C.2 178.3 0 184.1 0 256c0 71.9.2 77.7 1.8 79.6 3.4 4.3 4.5 4.4 44.5 4.4h38.3l19 13.3c23.3 16.3 27 19 77.9 56.7 71 52.6 93.2 68 98.5 68.7 4.2.6 9.4-1.6 11-4.6.7-1.3 1-71.8 1-218.1s-.3-216.8-1-218.1c-1.4-2.6-6.2-4.9-10.3-4.9-2.8 0-9.4 4.5-41.8 28.3ZM271 256.5c0 104.8-.2 190.5-.5 190.5-.9 0-46.1-32.7-81-58.6-52.2-38.7-89-65-96.3-68.8-2.7-1.4-7.7-1.6-37.7-1.6H21V194h34.5c30.2 0 35-.2 37.8-1.7 7.4-3.8 84-58.2 140.2-99.6 19.8-14.6 36.3-26.6 36.8-26.6.4-.1.7 85.6.7 190.4Z"/>
  <path fill="#F4ADA4" d="M271 256.5c0 104.8-.2 190.5-.5 190.5-.9 0-46.1-32.7-81-58.6-52.2-38.7-89-65-96.3-68.8-2.7-1.4-7.7-1.6-37.7-1.6H21V194h34.5c30.2 0 35-.2 37.8-1.7 7.4-3.8 84-58.2 140.2-99.6 19.8-14.6 36.3-26.6 36.8-26.6.4-.1.7 85.6.7 190.4Z"/>
  <path fill="#151515" d="M447 125.3c-2.3.8-4.1 2.4-5.4 4.7-3 5.7-1.7 9.8 5.8 17.8 28.1 30.2 42.7 67.1 42.7 108.2 0 41.1-14.6 78-42.7 108.2-7.5 8-8.8 12.1-5.8 17.7 2.1 4.1 7.1 6.3 11.9 5.3 5.3-1 21.5-19.6 32.4-37.1 17.5-28.2 26.1-59.4 26.1-94.1 0-46.4-16-87.9-46.8-121.5-9.2-10-11.8-11.3-18.2-9.2Z"/>
  <path fill="#151515" d="M394.7 175.6c-3.1 3.1-4.2 7.8-2.8 11.6.5 1.4 3.1 5 5.7 7.9C413 212.5 421 233.3 421 256c0 22.7-8 43.5-23.4 60.9-2.6 2.9-5.2 6.5-5.7 7.9-2.6 6.8 2.4 14.2 9.5 14.2 5.2-.1 7.1-1.2 13.3-8.1 11.3-12.6 20.5-29.7 25-46.6 2.4-8.9 2.7-11.5 2.7-28.3s-.3-19.4-2.7-28.3c-4.5-16.9-13.7-34-25-46.6-6.2-6.9-8.1-8-13.3-8.1-3.1 0-4.8.6-6.7 2.6ZM348 222.2c-3.4 1.8-6.3 8-5.5 11.7.3 1.7 1.9 4.6 3.5 6.6 6.8 8.6 7.7 18.4 2.4 27-6.1 9.8-6.8 11.5-5.8 15.3 1.3 5.1 6.5 8.6 11.8 7.9 9.8-1.3 19.6-18.6 19.6-34.7 0-11.2-5.1-23.9-12.6-31.1-3.6-3.5-9.5-4.7-13.4-2.7Z"/>
</svg>
