<svg xmlns="http://www.w3.org/2000/svg" fill="none" viewBox="0 0 512 446">
  <path fill="#000" fill-rule="evenodd" d="M274.939 2.831c-2.445 1.559-19.071 13.628-36.946 26.821-46.401 34.246-82.687 60.421-120 86.559l-32.5 22.768-37 .014c-22.858.009-38.453.418-40.802 1.07-2.555.709-4.44 2.102-5.746 4.244C.064 147.391 0 149.978 0 222.996c0 73.018.064 75.605 1.945 78.689 1.306 2.142 3.191 3.535 5.746 4.244 2.352.653 17.93 1.058 40.844 1.061l37.042.006 15.458 10.79c20.072 14.011 35.69 25.376 84.984 61.848 58.698 43.429 89.155 64.867 93.82 66.038 3.234.812 9.156-2.282 10.865-5.676 1.595-3.166 1.903-429.254.314-433.434-1.096-2.883-6.459-6.557-9.579-6.562-1.13-.002-4.055 1.272-6.5 2.831ZM93.309 158.834c6.659-3.541 80.22-55.87 136.963-97.431l40.221-29.459.255 95.446c.14 52.496.14 138.696 0 191.557l-.255 96.109-25.5-18.339c-14.025-10.087-40.575-29.529-59-43.205-37.325-27.704-65.8-48.273-82.826-59.829l-11.326-7.687H20.993v-126h35.066c24.711 0 35.71-.343 37.25-1.162Z" clip-rule="evenodd"/>
  <path fill="#000" d="M397.493 141.382c-6.033 2.63-7.524 10.424-3.047 15.935a2052.41 2052.41 0 0 0 7.115 8.679c20.09 24.379 25.623 60.168 13.919 90.034-3.299 8.417-8.535 17.432-13.919 23.966a1879.974 1879.974 0 0 0-7.15 8.725c-7.108 8.759 1.755 20.608 11.836 15.825 4.043-1.919 12.017-10.908 18.455-20.805 23.986-36.873 23.986-84.617 0-121.49-8.921-13.714-17.82-22.362-22.86-22.216-.742.022-2.699.628-4.349 1.347Z"/>
  <path fill="#000" fill-rule="evenodd" d="M342.993 198.892c0-4.299 3.723-9.508 7.284-10.191 1.219-.233 2.815-.262 3.548-.065.732.198 1.932.36 2.665.36 1.798 0 8.201 6.871 11.007 11.81 8.391 14.772 7.771 33.062-1.595 47.088-6.294 9.425-13.542 11.806-19.832 6.513-4.554-3.832-4.285-8.742.898-16.375 7.338-10.805 7.326-20.25-.037-30.119-2.942-3.944-3.938-6.224-3.938-9.021Z" clip-rule="evenodd"/>
  <path fill="#000" d="M444.64 94.059c-2.813 2.212-4.543 7.029-3.843 10.694.238 1.241 3.36 5.516 6.938 9.5 12.061 13.427 19.186 23.677 26.315 37.857 22.243 44.238 22.243 97.534 0 141.772-7.129 14.18-14.254 24.43-26.315 37.857-6.91 7.692-7.86 9.863-6.543 14.944 1.142 4.408 5.146 7.313 10.079 7.313 3.666 0 4.602-.617 10.988-7.25 21.145-21.96 36.847-50.316 44.163-79.75 3.931-15.812 5.055-25.596 5.055-44s-1.124-28.188-5.055-44c-7.316-29.434-23.018-57.79-44.163-79.75-6.386-6.633-7.322-7.25-10.988-7.25-2.535 0-4.972.758-6.631 2.063Z"/>
  <path fill="#54AB61" d="M230.272 61.403c-56.743 41.561-130.304 93.89-136.963 97.431-1.54.819-12.539 1.162-37.25 1.162H20.993v126h70.848l11.326 7.687c17.026 11.556 45.501 32.125 82.826 59.829 18.425 13.676 44.975 33.118 59 43.205l25.5 18.339.255-96.109c.14-52.861.14-139.061 0-191.557l-.255-95.446-40.221 29.459Z"/>
</svg>
