<svg xmlns="http://www.w3.org/2000/svg" fill="none" viewBox="0 0 512 473">
  <g clip-path="url(#a)">
    <path fill="#000" fill-rule="evenodd" d="m196 6.846 2.923-2.923c3.99-3.99 8.848-3.992 13.311-.007l3.266 2.916.307 21.238c.325 22.408-.151 25.656-4.167 28.47-3.608 2.527-9.392 1.862-12.717-1.463L196 52.154V6.846Zm-97.406 32.56c-1.162-4.156.734-8.97 4.294-10.906 4.085-2.22 7.749-1.806 11.054 1.25 4.495 4.158 22.458 36.036 22.458 39.856 0 7.24-7.275 11.971-13.712 8.916-2.8-1.329-5.105-4.579-13.288-18.742-5.445-9.424-10.308-18.592-10.806-20.374ZM275 69.816c0-4.346 20.136-39.259 23.844-41.342 2.964-1.666 8.456-1.299 10.9.728 2.438 2.021 4.241 7.224 3.459 9.98-1.349 4.744-20.587 37.023-23.015 38.614-1.346.882-4.021 1.604-5.944 1.604-4.519 0-9.244-4.899-9.244-9.584Zm-245.735 45.86c-4.368-3.902-3.534-12.673 1.485-15.596 4.484-2.612 8.414-1.24 26.75 9.337 20.126 11.61 22.524 13.944 20.901 20.339-1.114 4.391-5.311 7.672-9.655 7.547-3.235-.093-34.619-17.285-39.481-21.627Zm305.985 5.846c1.238-1.424 9.9-7.037 19.25-12.473 19.505-11.339 22.571-12.13 27.577-7.126 3.847 3.847 4.072 9.667.511 13.191-1.327 1.312-10.115 6.819-19.529 12.236-19.685 11.328-22.54 12.033-27.275 6.734-3.512-3.931-3.723-8.892-.534-12.562ZM6.546 215.584c-7.043-2.943-8.621-11.471-3.024-16.334 2.52-2.19 3.191-2.25 25.069-2.25 25.024 0 26.365.307 28.408 6.496 1.593 4.828-.784 10.098-5.431 12.04-4.936 2.062-40.111 2.1-45.022.048Zm274.359 19.953c13.724-18.701 34.643-32.05 58.095-37.074 4.428-.948 11.282-1.285 21.5-1.057 12.688.284 16.354.742 23.788 2.971 16.814 5.044 30.151 13.163 42.318 25.764 11.026 11.419 18.362 24.034 23.007 39.562 2.134 7.136 2.712 11.441 3.064 22.797.239 7.7.058 16.025-.402 18.5l-.835 4.5 6.668 2.601c34.353 13.402 55.632 45.745 53.553 81.399-.723 12.409-3.475 22.399-9.217 33.461-9.141 17.61-23.951 30.904-42.854 38.466-1.731.692-3.178 1.3-4.653 1.832-10.914 3.942-23.312 3.776-162.969 3.509L146.5 472.49l-8-2.255c-9.473-2.671-22.141-8.558-30.206-14.037-21.365-14.518-36.195-37.886-40.337-63.565-1.9-11.78-.775-31.114 2.439-41.915 11.782-39.586 45.745-66.602 87.104-69.285 4.95-.321 11.739-.185 15.086.304l6.087.887 3.186-6.144c8.745-16.867 26.738-31.528 45.325-36.931 13.234-3.847 30.3-3.756 43.398.231l5.893 1.795 4.43-6.038Zm124.571-1.837c-7.564-6.136-21.849-13.063-31.173-15.116-8.601-1.893-24.4-1.949-32.803-.116-19.623 4.28-39.392 18.784-48.987 35.942-4.016 7.181-7.56 10.59-11.01 10.59-1.224 0-5.101-1.29-8.615-2.867-29.373-13.18-61.679-1.546-74.604 26.867-5.426 11.931-5.695 12.374-8.456 13.923-2.325 1.305-3.814 1.279-13.112-.225-12.888-2.086-16.113-2.106-27.226-.168-26.252 4.578-47.696 22.221-57.758 47.52-6.958 17.496-6.291 41.128 1.652 58.477 7.629 16.665 23.09 31.605 40.118 38.766 1.698.714 3.109 1.339 4.549 1.885 10.474 3.974 22.514 3.822 157.657 3.805 119.383-.015 141.837-.239 147.663-1.473 14.451-3.062 29.186-13.077 37.713-25.633 5.005-7.371 7.221-12.527 9.285-21.603 7.521-33.066-14.104-66.294-48.06-73.849-8.552-1.902-13.309-5.354-13.309-9.658 0-1.312.956-6.168 2.125-10.79 2.806-11.095 2.281-29.93-1.114-39.977-4.923-14.572-13.628-27.451-24.535-36.3ZM27.594 300.166c1.532-2.775 5.438-5.484 19.906-13.803 18.278-10.509 21.948-11.799 26.555-9.333 3.048 1.631 5.213 6.727 4.492 10.572-.792 4.222-2.801 5.732-22.991 17.279-17.845 10.207-21.595 11.171-26.061 6.705-3.555-3.555-4.178-7.295-1.901-11.42Z" clip-rule="evenodd"/>
    <path fill="#000" d="M182.5 88.972c-38.619 8.381-69.135 32.364-85.433 67.145-15.922 33.975-14.757 72.868 3.211 107.227C106.013 274.31 108.657 277 113.701 277c4.478 0 6.933-1.391 8.789-4.98 2.29-4.428 1.873-6.792-2.49-14.137-9.991-16.817-13.411-29.887-13.446-51.383-.03-19.058 1.728-27.119 9.381-43 5.746-11.925 9.786-17.69 18.813-26.852C154.106 117.004 178.156 107 206.022 107c27.255 0 50.887 9.757 70.054 28.924 12.142 12.142 20.229 25.641 25.511 42.579C304.846 188.956 307.312 192 312.52 192c4.719 0 7.096-1.358 9.073-5.18 1.929-3.73 1.504-7.292-2.194-18.42-12.58-37.849-44.787-67.743-84.105-78.064-13.745-3.608-39.4-4.27-52.794-1.364Z"/>
    <path fill="#F4ADA4" d="M374.303 218.584c9.324 2.053 23.609 8.98 31.173 15.116 10.907 8.849 19.612 21.728 24.535 36.3 3.395 10.047 3.92 28.882 1.114 39.977-1.169 4.622-2.125 9.478-2.125 10.79 0 4.304 4.757 7.756 13.309 9.658 33.956 7.555 55.581 40.783 48.06 73.849-2.064 9.076-4.28 14.232-9.285 21.603-8.527 12.556-23.262 22.571-37.713 25.633-5.826 1.234-28.28 1.458-147.663 1.473-135.143.017-147.183.169-157.657-3.805-1.44-.546-2.851-1.171-4.549-1.885-17.028-7.161-32.489-22.101-40.118-38.766-7.943-17.349-8.61-40.981-1.652-58.477 10.062-25.299 31.506-42.942 57.758-47.52 11.113-1.938 14.338-1.918 27.226.168 9.298 1.504 10.787 1.53 13.112.225 2.761-1.549 3.03-1.992 8.456-13.923 12.925-28.413 45.231-40.047 74.604-26.867 3.514 1.577 7.391 2.867 8.615 2.867 3.45 0 6.994-3.409 11.01-10.59 9.595-17.158 29.364-31.662 48.987-35.942 8.403-1.833 24.202-1.777 32.803.116Z"/>
  </g>
  <defs>
    <clipPath id="a">
      <path fill="#fff" d="M0 0h512v473H0z"/>
    </clipPath>
  </defs>
</svg>
