<svg xmlns="http://www.w3.org/2000/svg" fill="none" viewBox="0 0 512 512">
  <path fill="#EC1515" d="M401 1.914c13.3 3.5 23.3 9.2 33.1 18.9 9.5 9.5 14.6 17.6 18.7 29.9 2.3 6.8 2.6 9.3 2.6 21.2-.1 11.7-.4 14.5-2.6 21.2-3.9 11.9-9.2 20.4-18.2 29.4s-17.4 14.2-29.4 18.3l-7.7 2.6-91.5.6c-50.3.4-93.3 1.1-95.4 1.5l-3.9.9 77.9 47.8c42.8 26.4 79.1 49.2 80.7 50.8 1.5 1.6 3.3 5 3.9 7.5l1.3 4.6 13-.7c24.4-1.2 40.9-5.1 58.1-13.8 36.5-18.4 61.9-52.9 68.9-93.1 1.9-11.3 1.9-32.8 0-44-3.3-18.6-11.2-37.5-22.1-52.7-6.7-9.2-21.3-23.7-30.5-30.2-14.4-10.2-33.6-18.1-51.5-21.2-11.8-2.1-14.5-1.8-5.4.5Zm-239.5 155.4c-29.7 10.6-53.2 24-77.5 44.4-26.6 22.2-49.9 53.8-63.9 86.4-13.4 31.2-20.1 63.6-20.1 97.4 0 33.9 12.5 64 36.8 88.7 14.7 14.8 31 25 50.7 31.6 18.9 6.3 13.4 6.1 160.9 6 76.9-.1 129.9-.5 124.3-1-60.9-5-110.3-54.5-115.6-115.8-1.7-20.4 1.7-42.7 9.4-60.3 1.8-4.3 3.2-7.8 3.1-7.8-.2 0-16.3 9.8-35.9 21.9-19.6 12-37 22.1-38.8 22.5-3.9.8-9.8-.7-13.1-3.4-6.1-4.7-5.8 1-5.8-111.9 0-81.8-.3-103.1-1.2-103-.7 0-6.7 1.9-13.3 4.3Zm349.7 234.2c-.4 14.1-5 31.7-12.1 46.9-18.8 40.2-59.2 68.5-103.1 72.4-7.6.7-8.4.9-3.9 1 12.5.3 34.7-5.5 48.9-12.6 17.7-9 36.1-24.6 47.3-40.1 14.3-19.8 24.6-49.7 23.4-67.9l-.3-5.8-.2 6.1Z"/>
  <path fill="#C11540" d="M510.2 150.714c-5.9 38-32.7 73.8-68.6 91.9-17.3 8.7-34 12.6-58.8 13.9l-12.7.6-.6 3c-.4 1.6-2 4.4-3.5 6.1-1.6 1.8-23.8 16-49.4 31.7l-46.5 28.5-3.6 8.5c-30.3 71.2 10.9 153.3 86.6 172.6 64.8 16.4 131.4-20.8 152.4-85.1 6-18.5 5.8-13.3 6.2-142 .2-64.9.3-122.5.1-128l-.3-10-1.3 8.3Z"/>
  <path fill="#EC4040" d="M105.2 1.413c-8.1 1.5-21.6 5.4-21 6.1.3.2 2.3-.2 4.5-1 6.8-2.4 18.9-4.8 28.5-5.6 9.1-.7 9.2-.7 2.3-.8-3.8 0-10.3.6-14.3 1.3ZM386.8.614c1.2.2 3.2.2 4.5 0 1.2-.2.2-.4-2.3-.4s-3.5.2-2.2.4ZM72 12.214c-17.5 8.8-36.8 24.6-46 37.8-1.3 1.9-2.7 3.6-3 3.9-.4.3-1.9 2.7-3.4 5.5-1.5 2.7-2.1 4.1-1.4 3.1 16.2-23.5 30.2-36.6 50.8-47.5 9.4-5 11.7-7.1 3-2.8Zm383.2 54.7c0 1.9.2 2.7.5 1.7.2-.9.2-2.5 0-3.5-.3-.9-.5-.1-.5 1.8Zm-440.4.2c-2.2 4-4.8 10.1-4.5 10.4.2.2 1.7-2.6 3.5-6.1 3-6.1 3.7-9.1 1-4.3Zm440.4 9.8c0 1.9.2 2.7.5 1.7.2-.9.2-2.5 0-3.5-.3-.9-.5-.1-.5 1.8ZM6.1 87.014c-.6 1.8-1.1 3.7-1 4.3 0 .6.7-.7 1.5-2.8.8-2.2 1.2-4.1 1-4.3-.2-.2-.9 1-1.5 2.8Zm-3.6 13.2c-.9 4.2-1.5 8.6-1.2 9.9.4 1.9.5 1.8.6-.7.1-1.7.8-5.9 1.6-9.4.9-3.5 1.3-6.6 1.1-6.8-.2-.3-1.2 2.9-2.1 7Zm-2.2 19.2c0 3.8.2 5.3.4 3.2.2-2 .2-5.2 0-7-.2-1.7-.4-.1-.4 3.8Zm386.5 24.2c1.2.2 3 .2 4 0 .9-.3-.1-.5-2.3-.4-2.2 0-3 .2-1.7.4Z"/>
  <path fill="#EC6B40" d="M117.2.914c-56.9 4.8-103.3 46.8-114.8 104-1.6 7.7-1.8 20.2-2 133.5-.1 74.5.2 122 .7 117.5 2-17.3 7.2-38.9 13.6-56 25.1-67.5 81.3-121.7 149.2-144 10.3-3.4 11.7-4.1 14-7.5 4.2-6.2 7.4-8 14-8 4.7 0 6.6.6 10.1 2.9 3 2 4.8 2.6 6.4 2 1.1-.4 43.5-1 94.1-1.4 101.1-.7 96.8-.5 111.2-7 19.3-8.8 35-27.9 39.9-48.5 2.1-9 2.1-24 0-33-4.8-20.1-19.4-38.4-38.1-47.5-16.3-7.9-4.9-7.4-155-7.6-73.7-.1-138.2.2-143.3.6Z"/>
  <path fill="#ECECEC" d="M185.4 142.314c-1.7.8-4.4 3.1-6 5.2l-2.9 3.7-.3 103.1-.2 103.1 2.2 4.4c3.3 6.4 6.7 8.6 13.6 8.6h5.7l82-50.4c45.1-27.8 83.4-51.9 85.2-53.6 5.6-5.6 5.6-15.4 0-21-1.8-1.7-40.1-25.8-85.1-53.5-88.6-54.4-86.3-53.2-94.2-49.6Z"/>
</svg>
